<svg width="1537" height="1052" viewBox="0 0 1537 1052" fill="none" xmlns="http://www.w3.org/2000/svg">
<rect x="0.157837" y="268" width="1536.84" height="1536.84" rx="768.421" fill="#F37929"/>
<g filter="url(#filter0_bii)">
<rect width="335.043" height="531.536" rx="19.3145" transform="matrix(0.285354 -0.958422 0.824126 0.566406 304 321.112)" fill="#6503FF" fill-opacity="0.2"/>
<rect width="335.043" height="531.536" rx="19.3145" transform="matrix(0.285354 -0.958422 0.824126 0.566406 304 321.112)" fill="url(#paint0_radial)"/>
</g>
<rect opacity="0.48" width="69.5323" height="69.5323" rx="34.7662" transform="matrix(0.824126 0.566406 -0.285354 0.958422 714.637 254.424)" fill="#3A3A3A"/>
<rect opacity="0.7" width="69.5323" height="69.5323" rx="34.7662" transform="matrix(0.824126 0.566406 -0.285354 0.958422 749.231 278.2)" fill="#040404"/>
<g filter="url(#filter1_i)">
<rect width="70.5624" height="50.4753" rx="9.01345" transform="matrix(0.824126 0.566406 -0.285354 0.958422 418.359 142.671)" fill="url(#paint1_linear)"/>
</g>
<path d="M413.307 159.369L433.082 172.96C435.665 169.349 441.929 162.554 446.317 164.265C447.643 165.918 450.512 170.558 451.372 175.893M408.69 174.877L428.465 188.467C426.178 196.147 430.399 205.809 432.795 209.68C438.302 211.21 444.796 204.831 447.356 201.451L466.909 214.89M470.427 203.074L450.873 189.635C450.564 187.1 450.65 181.802 453.475 180.897" stroke="url(#paint2_linear)" stroke-width="0.772581"/>
<path d="M488.538 217.812C488.804 219.779 488.707 224.112 486.186 225.71M494.052 218.182C494.415 221.256 494.115 228.275 490.01 231.757M499.072 218.065C499.509 222.181 498.981 231.768 493.377 237.193M504.227 218.783C504.881 223.742 504.379 235.448 497.136 242.601" stroke="white" stroke-width="2.8328" stroke-linecap="round" stroke-linejoin="round"/>
<path d="M375.984 306.67L371.616 303.668L367.621 317.086L370.259 318.899L371.514 314.682L373.245 315.871C375.519 317.435 377.894 316.596 378.653 314.046C379.412 311.497 378.259 308.234 375.984 306.67ZM374.101 312.996L372.37 311.807L373.398 308.356L375.128 309.546C375.936 310.101 376.307 311.256 376.016 312.234C375.724 313.211 374.909 313.551 374.101 312.996ZM385.599 317.897L385.331 318.797C385.004 317.695 384.327 316.699 383.223 315.94C381.064 314.456 378.627 315.437 377.777 318.293C376.926 321.149 378.05 324.577 380.209 326.061C381.314 326.82 382.253 326.934 383.014 326.58L382.745 327.481L385.218 329.18L388.071 319.596L385.599 317.897ZM381.514 323.679C380.377 322.898 379.821 321.43 380.249 319.993C380.677 318.555 381.77 318.22 382.907 319.002C384.044 319.784 384.6 321.251 384.172 322.689C383.744 324.126 382.652 324.461 381.514 323.679ZM394.893 323.961C393.789 323.202 392.85 323.088 392.089 323.443L392.357 322.542L389.885 320.842L385.89 334.26L388.362 335.96L389.772 331.225C390.099 332.327 390.776 333.323 391.88 334.082C394.039 335.566 396.476 334.585 397.326 331.729C398.176 328.873 397.052 325.445 394.893 323.961ZM392.196 331.02C391.059 330.239 390.503 328.771 390.931 327.334C391.359 325.896 392.451 325.562 393.588 326.343C394.726 327.125 395.282 328.592 394.854 330.03C394.425 331.467 393.333 331.802 392.196 331.02ZM400.594 335.361L406.445 339.382C406.62 339.063 406.767 338.702 406.887 338.3C407.748 335.405 406.613 332.016 404.207 330.362C401.602 328.572 399.166 329.553 398.316 332.409C397.465 335.265 398.556 338.67 401.375 340.608C402.94 341.684 404.36 341.851 405.556 341.103L403.972 338.421C403.516 338.616 402.848 338.526 402.172 338.062C401.266 337.439 400.61 336.573 400.594 335.361ZM401.184 333.18C401.705 332.361 402.492 332.254 403.431 332.9C404.173 333.41 404.795 334.322 404.727 335.615L401.184 333.18ZM411.68 337.877L412.188 336.171L409.716 334.472L406.862 344.056L409.334 345.755L410.624 341.423C411.189 339.525 412.782 340.043 413.747 340.937L414.717 337.678C413.679 336.965 412.392 336.819 411.68 337.877ZM416.597 351.07C418.212 352.18 419.904 352.165 421.058 351.157L419.327 348.235C418.864 348.725 418.134 348.709 417.409 348.21C416.337 347.474 415.814 346.029 416.208 344.706C416.602 343.384 417.661 343.027 418.733 343.763C419.458 344.261 419.931 345.072 420.012 345.935L422.605 345.962C422.336 343.999 421.209 342.048 419.61 340.949C417.105 339.227 414.586 340.151 413.736 343.007C412.885 345.863 414.092 349.348 416.597 351.07ZM429.16 347.512C428.072 346.764 427.111 346.658 426.455 347.061L427.864 342.327L425.392 340.627L421.397 354.045L423.869 355.745L425.427 350.512C425.833 349.151 426.642 348.968 427.548 349.591C428.339 350.134 428.817 351.132 428.463 352.321L426.836 357.784L429.309 359.483L431.061 353.598C431.831 351.01 430.824 348.656 429.16 347.512ZM439.843 355.178L439.575 356.078C439.248 354.976 438.571 353.98 437.467 353.221C435.308 351.737 432.871 352.718 432.021 355.574C431.171 358.43 432.295 361.858 434.454 363.342C435.558 364.101 436.497 364.215 437.258 363.861L436.99 364.762L439.462 366.461L442.315 356.877L439.843 355.178ZM435.759 360.96C434.621 360.179 434.065 358.711 434.493 357.274C434.921 355.836 436.014 355.501 437.151 356.283C438.288 357.065 438.844 358.532 438.416 359.97C437.988 361.407 436.896 361.742 435.759 360.96ZM445.617 358.13C446.424 358.685 447.334 358.363 447.614 357.424C447.893 356.485 447.452 355.234 446.644 354.679C445.836 354.124 444.926 354.446 444.647 355.385C444.367 356.324 444.809 357.575 445.617 358.13ZM441.276 367.708L443.748 369.407L446.602 359.823L444.129 358.123L441.276 367.708ZM453.32 364.117C452.232 363.369 451.271 363.263 450.615 363.666L450.883 362.765L448.411 361.066L445.557 370.65L448.03 372.35L449.588 367.117C449.993 365.756 450.802 365.573 451.708 366.196C452.5 366.739 452.977 367.737 452.623 368.926L450.997 374.389L453.469 376.088L455.221 370.203C455.991 367.615 454.985 365.261 453.32 364.117Z" fill="white"/>
<g filter="url(#filter2_f)">
<rect x="659.646" y="552.247" width="243.358" height="107.389" transform="rotate(-40 659.646 552.247)" fill="black" fill-opacity="0.51"/>
</g>
<g filter="url(#filter3_bii)">
<rect width="335.043" height="531.536" rx="19.3145" transform="matrix(-0.475931 -0.879483 0.760406 -0.649448 704.503 950.962)" fill="#6503FF" fill-opacity="0.2"/>
<rect width="335.043" height="531.536" rx="19.3145" transform="matrix(-0.475931 -0.879483 0.760406 -0.649448 704.503 950.962)" fill="url(#paint3_radial)"/>
</g>
<rect opacity="0.48" width="69.5323" height="69.5323" rx="34.7662" transform="matrix(0.760406 -0.649448 0.475931 0.879483 859.991 429.533)" fill="#3A3A3A"/>
<rect opacity="0.7" width="69.5323" height="69.5323" rx="34.7662" transform="matrix(0.760406 -0.649448 0.475931 0.879483 891.911 402.271)" fill="#040404"/>
<g filter="url(#filter4_i)">
<rect width="70.5624" height="50.4753" rx="9.01345" transform="matrix(0.760406 -0.649448 0.475931 0.879483 645.445 715.104)" fill="url(#paint4_linear)"/>
</g>
<path d="M653.698 730.522L671.944 714.938C670.878 709.848 669.551 698.619 672.764 694.421C674.463 693.796 678.818 693.049 682.649 695.061M661.399 744.752L679.644 729.169C683.458 736.216 691.681 736.723 695.316 736.095C698.954 730.479 698.004 719.213 697.075 714.282L715.116 698.873M709.249 688.03L691.207 703.44C689.434 702.367 686.085 699.261 686.868 695.421" stroke="url(#paint5_linear)" stroke-width="0.772581"/>
<path d="M727.426 675.057C728.814 675.859 731.542 678.43 731.348 682.305M730.325 668.773C732.468 670.088 736.817 674.421 737.066 681.23M732.673 662.794C735.518 664.613 741.402 670.671 742.171 680.347M735.621 657.13C739.111 659.171 746.364 666.4 747.448 678.986" stroke="white" stroke-width="2.8328" stroke-linecap="round" stroke-linejoin="round"/>
<path d="M731.508 857.992L726.52 862.253L733.183 874.565L735.251 872.799L733.214 869.035L736.043 866.619C738.491 864.527 738.64 861.186 737.517 859.11C736.412 857.07 733.85 855.992 731.508 857.992ZM734.821 864.525L732.053 866.889L729.768 862.667L732.627 860.225C733.646 859.355 734.913 859.765 735.503 860.855C736.084 861.928 735.946 863.563 734.821 864.525ZM746.345 863.684C747.425 862.762 747.991 861.507 748.1 860.23L748.69 861.321L750.713 859.593L745.897 850.693L743.874 852.42L744.455 853.493C743.469 853.152 742.342 853.369 741.262 854.291C739.133 856.11 738.535 859.526 740.001 862.235C741.458 864.926 744.216 865.502 746.345 863.684ZM745.571 861.31C744.309 862.388 742.822 862.064 741.984 860.516C741.156 858.985 741.473 857.146 742.735 856.068C743.951 855.029 745.505 855.27 746.334 856.801C747.171 858.349 746.788 860.271 745.571 861.31ZM752.235 844.919C751.14 845.854 750.58 847.079 750.455 848.369L749.874 847.296L747.867 849.01L754.682 861.604L756.689 859.89L754.1 855.105C755.101 855.434 756.223 855.247 757.318 854.312C759.447 852.494 760.02 849.073 758.563 846.381C757.097 843.673 754.364 843.101 752.235 844.919ZM755.845 852.535C754.628 853.574 753.065 853.315 752.227 851.767C751.399 850.237 751.792 848.333 753.008 847.293C754.271 846.215 755.749 846.522 756.577 848.052C757.414 849.6 757.107 851.457 755.845 852.535ZM766.329 846.616C768.352 844.888 768.856 842.451 768.669 840.913L766.526 841.843C766.584 842.772 766.267 843.788 765.294 844.62C763.894 845.815 762.719 845.533 761.963 844.506L767.94 839.402C767.833 839.081 767.691 838.817 767.538 838.536C766.158 835.985 763.619 835.197 761.094 837.353C758.676 839.418 758.168 842.835 759.605 845.491C761.128 848.306 763.865 848.72 766.329 846.616ZM761.173 843.046C760.728 841.935 760.974 840.336 762.145 839.336C763.346 838.31 764.552 838.566 765.234 839.578L761.173 843.046ZM769.435 832.518L768.721 831.199L766.713 832.913L771.53 841.814L773.537 840.099L771.443 836.23C770.149 833.837 770.57 832.192 772.374 831.088L771.194 828.907C769.888 829.739 769.329 831.091 769.435 832.518ZM780.703 834.339C782.817 832.533 783.303 829.855 782.874 828.241L780.68 829.241C780.912 830.123 780.569 831.419 779.565 832.276C778.288 833.367 776.791 832.82 776.039 831.43C775.277 830.023 775.442 828.108 776.719 827.017C777.723 826.16 778.837 826.288 779.404 826.884L780.942 824.671C779.914 823.594 777.734 823.141 775.605 824.959C773.263 826.959 772.624 830.463 774.061 833.119C775.508 835.792 778.346 836.352 780.703 834.339ZM785.235 816.734C784.125 817.683 783.602 818.977 783.499 820.224L780.757 815.158L778.75 816.872L785.698 829.713L787.706 827.998L785.326 823.601C784.479 822.035 784.657 820.392 785.782 819.43C786.892 818.482 787.891 818.89 788.624 820.244L791.204 825.011L793.211 823.296L790.394 818.09C789.109 815.715 787.242 815.02 785.235 816.734ZM798.578 819.072C799.658 818.15 800.224 816.895 800.334 815.618L800.924 816.709L802.946 814.981L798.13 806.081L796.107 807.809L796.688 808.882C795.703 808.54 794.575 808.757 793.495 809.68C791.366 811.498 790.769 814.914 792.235 817.623C793.691 820.314 796.449 820.891 798.578 819.072ZM797.805 816.698C796.542 817.776 795.055 817.452 794.217 815.904C793.389 814.374 793.706 812.535 794.968 811.456C796.185 810.417 797.739 810.659 798.567 812.189C799.405 813.737 799.021 815.659 797.805 816.698ZM800.443 802.28C801.112 801.708 801.321 800.655 800.902 799.881C800.502 799.143 799.646 798.999 798.977 799.571C798.308 800.142 798.099 801.195 798.499 801.934C798.918 802.708 799.774 802.851 800.443 802.28ZM804.901 813.312L806.924 811.584L802.107 802.684L800.085 804.412L804.901 813.312ZM808.463 796.896C807.353 797.844 806.831 799.139 806.727 800.385L806.117 799.259L804.11 800.974L808.926 809.874L810.934 808.16L808.554 803.762C807.707 802.197 807.885 800.553 809.01 799.592C810.121 798.644 811.119 799.051 811.852 800.405L814.432 805.172L816.439 803.458L813.622 798.251C812.337 795.876 810.471 795.181 808.463 796.896Z" fill="white"/>
<g opacity="0.6">
<g filter="url(#filter5_f)">
<path d="M1141.1 994.57V993.153V994.57ZM1144.84 977.058V978.474V977.058ZM612.716 994.57V995.986V994.57ZM744 982.408V983.825V982.408ZM1080.52 982.408V980.992V982.408ZM1081.3 978.774V977.358V978.774ZM744.778 978.774V980.19V978.774ZM1055.92 982.408V980.992V982.408ZM1123.67 982.408V983.825V982.408ZM1124.44 978.774V980.19V978.774ZM1056.7 978.774V977.358V978.774ZM670.426 985.571V986.988V985.571ZM740.249 985.571V984.155V985.571ZM740.813 982.933V981.517V982.933ZM670.99 982.933V984.35V982.933ZM694.023 983.846V985.263L694.13 985.263L694.235 985.247L694.023 983.846ZM705.217 983.041L705.242 981.625L705.222 981.624L705.201 981.625L705.217 983.041ZM693.842 984.692L695.227 984.989L695.594 983.276H693.842V984.692ZM717.401 984.692V983.276H717.302L717.204 983.289L717.401 984.692ZM704.687 985.518L704.648 986.934L704.679 986.934L704.71 986.934L704.687 985.518ZM717.539 984.048L717.401 985.457L717.47 985.464H717.539V984.048ZM765.325 982.741C764.546 982.668 763.855 983.241 763.783 984.02C763.71 984.799 764.282 985.489 765.061 985.562L765.325 982.741ZM765.002 983.169C764.221 983.224 763.633 983.901 763.688 984.681C763.743 985.462 764.42 986.05 765.2 985.995L765.002 983.169ZM771.188 982.587C770.41 982.51 769.716 983.079 769.639 983.858C769.563 984.636 770.131 985.329 770.91 985.406L771.188 982.587ZM770.766 983.326C769.987 983.395 769.411 984.082 769.48 984.861C769.548 985.641 770.236 986.217 771.015 986.148L770.766 983.326ZM776.389 982.426C775.611 982.346 774.915 982.912 774.836 983.691C774.756 984.469 775.322 985.164 776.1 985.244L776.389 982.426ZM775.881 983.469C775.103 983.546 774.534 984.24 774.612 985.019C774.689 985.797 775.383 986.365 776.162 986.288L775.881 983.469ZM781.963 982.297C781.185 982.224 780.494 982.795 780.42 983.574C780.347 984.353 780.918 985.044 781.697 985.117L781.963 982.297ZM781.409 983.597C780.631 983.676 780.064 984.371 780.143 985.149C780.222 985.927 780.917 986.494 781.695 986.415L781.409 983.597ZM616.463 978.474L1144.84 978.474V975.641L616.463 975.641V978.474ZM1141.1 993.153L612.716 993.153V995.986L1141.1 995.986V993.153ZM1150.54 985.517C1149.64 989.7 1145.37 993.153 1141.1 993.153V995.986C1146.71 995.986 1152.13 991.599 1153.31 986.11L1150.54 985.517ZM1144.84 978.474C1146.93 978.474 1148.54 979.292 1149.53 980.513C1150.51 981.734 1150.98 983.477 1150.54 985.517L1153.31 986.11C1153.91 983.315 1153.3 980.68 1151.73 978.732C1150.15 976.784 1147.7 975.641 1144.84 975.641V978.474ZM607.02 986.11C607.916 981.928 612.186 978.474 616.463 978.474V975.641C610.85 975.641 605.425 980.028 604.25 985.517L607.02 986.11ZM604.25 985.517C603.652 988.313 604.256 990.948 605.832 992.896C607.407 994.844 609.857 995.986 612.716 995.986V993.153C610.629 993.153 609.022 992.336 608.034 991.115C607.047 989.894 606.584 988.15 607.02 986.11L604.25 985.517ZM744.778 980.19L1081.3 980.19V977.358L744.778 977.358V980.19ZM1080.52 980.992L744 980.992V983.825L1080.52 983.825V980.992ZM744 980.992C743.932 980.992 743.899 980.979 743.893 980.976C743.886 980.973 743.892 980.975 743.901 980.986C743.91 980.996 743.911 981.003 743.909 980.996C743.907 980.989 743.901 980.954 743.916 980.888L741.146 980.295C740.957 981.174 741.139 982.074 741.699 982.767C742.258 983.459 743.101 983.825 744 983.825V980.992ZM1081.39 980.295C1081.31 980.645 1080.88 980.992 1080.52 980.992V983.825C1082.22 983.825 1083.8 982.544 1084.16 980.888L1081.39 980.295ZM1081.3 980.19C1081.37 980.19 1081.4 980.204 1081.41 980.207C1081.42 980.21 1081.41 980.208 1081.4 980.197C1081.39 980.186 1081.39 980.179 1081.39 980.186C1081.39 980.194 1081.4 980.228 1081.39 980.295L1084.16 980.888C1084.34 980.008 1084.16 979.108 1083.6 978.416C1083.04 977.723 1082.2 977.358 1081.3 977.358V980.19ZM744.778 977.358C743.083 977.358 741.5 978.638 741.146 980.295L743.916 980.888C743.991 980.537 744.42 980.19 744.778 980.19V977.358ZM1056.7 980.19L1124.44 980.19V977.358L1056.7 977.358V980.19ZM1123.67 980.992L1055.92 980.992V983.825L1123.67 983.825V980.992ZM1055.92 980.992C1055.85 980.992 1055.82 980.979 1055.81 980.976C1055.81 980.973 1055.81 980.975 1055.82 980.986C1055.83 980.996 1055.83 981.003 1055.83 980.996C1055.83 980.989 1055.82 980.954 1055.84 980.888L1053.07 980.295C1052.88 981.174 1053.06 982.074 1053.62 982.767C1054.18 983.459 1055.02 983.825 1055.92 983.825V980.992ZM1124.53 980.295C1124.45 980.645 1124.02 980.992 1123.67 980.992V983.825C1125.36 983.825 1126.94 982.544 1127.3 980.888L1124.53 980.295ZM1124.44 980.19C1124.51 980.19 1124.54 980.204 1124.55 980.207C1124.56 980.21 1124.55 980.208 1124.54 980.197C1124.53 980.186 1124.53 980.179 1124.53 980.186C1124.54 980.194 1124.54 980.228 1124.53 980.295L1127.3 980.888C1127.49 980.008 1127.3 979.108 1126.74 978.416C1126.18 977.723 1125.34 977.358 1124.44 977.358V980.19ZM1056.7 977.358C1055 977.358 1053.42 978.638 1053.07 980.295L1055.84 980.888C1055.91 980.537 1056.34 980.19 1056.7 980.19V977.358ZM670.99 984.35L740.813 984.35V981.517L670.99 981.517V984.35ZM740.249 984.155L670.426 984.155V986.988L740.249 986.988V984.155ZM670.426 984.155C670.439 984.155 670.555 984.17 670.656 984.295C670.757 984.419 670.747 984.535 670.744 984.549L667.974 983.956C667.815 984.698 667.966 985.474 668.453 986.076C668.94 986.678 669.667 986.988 670.426 986.988V984.155ZM740.495 983.956C740.495 983.955 740.492 983.97 740.475 983.997C740.457 984.024 740.43 984.055 740.395 984.084C740.359 984.113 740.323 984.132 740.293 984.144C740.263 984.155 740.248 984.155 740.249 984.155V986.988C741.662 986.988 742.969 985.931 743.265 984.549L740.495 983.956ZM740.813 984.35C740.8 984.35 740.684 984.335 740.583 984.21C740.482 984.085 740.492 983.969 740.495 983.956L743.265 984.549C743.424 983.807 743.273 983.031 742.786 982.429C742.299 981.827 741.572 981.517 740.813 981.517V984.35ZM670.99 981.517C669.577 981.517 668.27 982.574 667.974 983.956L670.744 984.549C670.744 984.55 670.747 984.535 670.764 984.508C670.782 984.481 670.809 984.45 670.844 984.421C670.88 984.392 670.916 984.372 670.946 984.361C670.976 984.35 670.991 984.35 670.99 984.35V981.517ZM669.363 985.263H694.023V982.43L669.363 982.43V985.263ZM694.235 985.247C695.788 985.012 700.221 984.516 705.234 984.457L705.201 981.625C700.048 981.685 695.485 982.193 693.812 982.446L694.235 985.247ZM705.192 984.457C707.069 984.491 711.398 984.611 713.834 984.821L714.077 981.999C711.534 981.78 707.117 981.658 705.242 981.625L705.192 984.457ZM669.182 986.108L693.842 986.108V983.276L669.182 983.276V986.108ZM741.786 983.276L717.401 983.276V986.108L741.786 986.108V983.276ZM717.204 983.289C715.61 983.513 710.806 984 704.664 984.101L704.71 986.934C710.956 986.831 715.877 986.336 717.598 986.095L717.204 983.289ZM704.726 984.102C702.909 984.052 700.193 983.951 697.95 983.811C696.823 983.74 695.841 983.662 695.158 983.578C694.806 983.535 694.584 983.496 694.471 983.468C694.4 983.451 694.454 983.457 694.555 983.509C694.599 983.531 694.762 983.616 694.921 983.798C695.105 984.008 695.346 984.436 695.227 984.989L692.457 984.396C692.333 984.975 692.583 985.428 692.789 985.664C692.971 985.872 693.17 985.982 693.263 986.03C693.463 986.132 693.668 986.188 693.794 986.219C694.077 986.289 694.437 986.343 694.813 986.389C695.583 986.484 696.634 986.567 697.773 986.638C700.062 986.781 702.813 986.883 704.648 986.934L704.726 984.102ZM741.924 982.631L717.539 982.631V985.464L741.924 985.464V982.631ZM717.676 982.638C717.423 982.613 717.157 982.582 716.945 982.548C716.837 982.531 716.76 982.516 716.712 982.505C716.627 982.485 716.706 982.495 716.834 982.561C716.875 982.582 716.952 982.625 717.04 982.695C717.12 982.759 717.274 982.897 717.394 983.125C717.529 983.382 717.606 983.732 717.513 984.11C717.427 984.455 717.234 984.677 717.111 984.791C716.896 984.99 716.68 985.055 716.67 985.059C716.619 985.076 716.593 985.08 716.615 985.076C716.723 985.055 717.04 985.018 717.709 984.986L717.572 982.156C716.905 982.189 716.406 982.231 716.076 982.295C715.988 982.312 715.876 982.337 715.76 982.376C715.685 982.402 715.427 982.49 715.187 982.711C715.053 982.836 714.852 983.069 714.764 983.426C714.667 983.815 714.746 984.175 714.887 984.444C715.11 984.868 715.474 985.046 715.531 985.076C715.745 985.187 715.97 985.241 716.071 985.264C716.21 985.297 716.359 985.324 716.502 985.346C716.789 985.391 717.115 985.43 717.401 985.457L717.676 982.638ZM765.061 985.562C765.259 985.58 765.462 985.604 765.619 985.63C765.699 985.643 765.749 985.653 765.773 985.659C765.836 985.675 765.725 985.656 765.574 985.57C765.534 985.547 765.206 985.369 765.018 984.95C764.904 984.695 764.856 984.378 764.936 984.049C765.011 983.742 765.171 983.533 765.287 983.414C765.492 983.203 765.703 983.124 765.731 983.113C765.793 983.089 765.831 983.081 765.823 983.083C765.767 983.096 765.539 983.132 765.002 983.169L765.2 985.995C765.737 985.957 766.166 985.912 766.464 985.842C766.545 985.824 766.653 985.795 766.767 985.75C766.847 985.719 767.094 985.619 767.318 985.388C767.444 985.259 767.61 985.039 767.688 984.722C767.771 984.383 767.722 984.056 767.603 983.791C767.406 983.352 767.055 983.154 766.981 983.111C766.761 982.985 766.534 982.929 766.449 982.908C766.324 982.877 766.192 982.853 766.072 982.833C765.83 982.794 765.56 982.763 765.325 982.741L765.061 985.562ZM770.91 985.406C771.212 985.436 771.528 985.476 771.778 985.521C771.905 985.543 771.994 985.563 772.047 985.578C772.143 985.604 772.041 985.59 771.892 985.491C771.836 985.455 771.54 985.261 771.388 984.847C771.301 984.608 771.275 984.332 771.343 984.053C771.406 983.789 771.534 983.599 771.637 983.48C771.821 983.269 772.014 983.185 772.04 983.174C772.093 983.15 772.118 983.145 772.092 983.152C771.958 983.188 771.575 983.255 770.766 983.326L771.015 986.148C771.825 986.076 772.433 985.995 772.835 985.886C772.942 985.857 773.073 985.815 773.206 985.755C773.311 985.708 773.558 985.588 773.772 985.342C774.047 985.027 774.271 984.479 774.048 983.871C773.883 983.422 773.554 983.194 773.448 983.124C773.197 982.959 772.923 982.881 772.797 982.846C772.628 982.8 772.446 982.762 772.274 982.732C771.927 982.67 771.534 982.621 771.188 982.587L770.91 985.406ZM776.1 985.244C776.498 985.285 776.915 985.341 777.251 985.404C777.42 985.436 777.545 985.465 777.626 985.489C777.751 985.526 777.664 985.518 777.523 985.416C777.461 985.372 777.19 985.174 777.06 984.771C776.987 984.546 776.972 984.294 777.032 984.043C777.089 983.803 777.2 983.626 777.294 983.511C777.463 983.306 777.639 983.223 777.659 983.213C777.703 983.192 777.714 983.191 777.67 983.205C777.461 983.267 776.934 983.364 775.881 983.469L776.162 986.288C777.218 986.183 777.984 986.066 778.476 985.92C778.607 985.881 778.756 985.83 778.904 985.757C779.029 985.696 779.276 985.563 779.485 985.307C779.744 984.992 779.942 984.475 779.756 983.9C779.61 983.448 779.297 983.203 779.17 983.112C778.898 982.917 778.588 982.819 778.426 982.772C778.22 982.711 777.994 982.661 777.776 982.62C777.336 982.537 776.833 982.472 776.389 982.426L776.1 985.244ZM781.697 985.117C782.215 985.166 782.765 985.234 783.212 985.314C783.437 985.354 783.614 985.393 783.738 985.427C783.799 985.444 783.832 985.456 783.843 985.461C783.862 985.468 783.811 985.451 783.731 985.396C783.682 985.363 783.407 985.174 783.27 984.773C783.192 984.545 783.174 984.288 783.236 984.031C783.294 983.788 783.408 983.611 783.501 983.499C783.666 983.302 783.834 983.227 783.836 983.226C783.863 983.213 783.854 983.22 783.784 983.241C783.473 983.332 782.761 983.46 781.409 983.597L781.695 986.415C783.049 986.278 783.995 986.131 784.581 985.959C784.735 985.914 784.902 985.857 785.063 985.779C785.2 985.714 785.458 985.576 785.675 985.316C785.944 984.994 786.155 984.457 785.951 983.859C785.794 983.397 785.464 983.149 785.331 983.059C785.041 982.86 784.702 982.755 784.5 982.699C784.255 982.63 783.98 982.573 783.707 982.525C783.159 982.427 782.526 982.35 781.963 982.297L781.697 985.117Z" fill="black" fill-opacity="0.74"/>
</g>
<g filter="url(#filter6_f)">
<path d="M767.656 973.512V972.095V973.512ZM771.404 956V957.416V956ZM239.276 973.512V974.928V973.512ZM370.56 961.35V962.767V961.35ZM707.084 961.35V959.934V961.35ZM707.862 957.716V956.3V957.716ZM371.338 957.716V959.133V957.716ZM682.48 961.35V959.934V961.35ZM750.226 961.35V962.767V961.35ZM751.004 957.716V959.133V957.716ZM683.258 957.716V956.3V957.716ZM296.986 964.514V965.93V964.514ZM366.809 964.514V963.097V964.514ZM367.374 961.875V960.459V961.875ZM297.551 961.875V963.292V961.875ZM320.584 962.789V964.205L320.69 964.205L320.795 964.189L320.584 962.789ZM331.778 961.983L331.803 960.567L331.782 960.567L331.761 960.567L331.778 961.983ZM320.403 963.634L321.788 963.931L322.154 962.218H320.403V963.634ZM343.961 963.634V962.218H343.862L343.764 962.232L343.961 963.634ZM331.248 964.46L331.209 965.876L331.24 965.877L331.271 965.876L331.248 964.46ZM344.099 962.99L343.962 964.4L344.03 964.406H344.099V962.99ZM391.885 961.683C391.106 961.611 390.416 962.183 390.343 962.962C390.27 963.741 390.843 964.431 391.622 964.504L391.885 961.683ZM391.562 962.111C390.782 962.166 390.194 962.843 390.248 963.623C390.303 964.404 390.98 964.992 391.76 964.937L391.562 962.111ZM397.748 961.529C396.97 961.452 396.277 962.021 396.2 962.8C396.123 963.578 396.692 964.272 397.47 964.348L397.748 961.529ZM397.327 962.268C396.547 962.337 395.971 963.024 396.04 963.803C396.109 964.583 396.796 965.159 397.575 965.09L397.327 962.268ZM402.95 961.368C402.172 961.288 401.476 961.855 401.396 962.633C401.316 963.411 401.882 964.106 402.661 964.186L402.95 961.368ZM402.442 962.411C401.663 962.488 401.095 963.182 401.172 963.961C401.25 964.739 401.944 965.307 402.722 965.23L402.442 962.411ZM408.524 961.239C407.745 961.166 407.054 961.737 406.981 962.516C406.907 963.295 407.479 963.986 408.258 964.06L408.524 961.239ZM407.97 962.539C407.191 962.618 406.625 963.313 406.704 964.091C406.783 964.87 407.477 965.436 408.256 965.357L407.97 962.539ZM243.024 957.416L771.404 957.416V954.584L243.024 954.584V957.416ZM767.656 972.095L239.276 972.095V974.928L767.656 974.928V972.095ZM777.099 964.46C776.204 968.642 771.934 972.095 767.656 972.095V974.928C773.27 974.928 778.695 970.541 779.869 965.052L777.099 964.46ZM771.404 957.416C773.491 957.416 775.098 958.234 776.086 959.455C777.073 960.676 777.536 962.419 777.099 964.46L779.869 965.052C780.468 962.257 779.863 959.622 778.288 957.674C776.713 955.726 774.263 954.584 771.404 954.584V957.416ZM233.581 965.052C234.476 960.87 238.747 957.416 243.024 957.416V954.584C237.411 954.584 231.986 958.971 230.811 964.459L233.581 965.052ZM230.811 964.459C230.213 967.255 230.817 969.89 232.392 971.838C233.967 973.786 236.417 974.928 239.276 974.928V972.095C237.19 972.095 235.582 971.278 234.595 970.057C233.607 968.836 233.144 967.093 233.581 965.052L230.811 964.459ZM371.338 959.133L707.862 959.133V956.3L371.338 956.3V959.133ZM707.084 959.934L370.56 959.934V962.767L707.084 962.767V959.934ZM370.56 959.934C370.492 959.934 370.46 959.921 370.453 959.918C370.447 959.915 370.453 959.917 370.462 959.928C370.471 959.939 370.471 959.945 370.47 959.938C370.468 959.931 370.462 959.897 370.476 959.83L367.706 959.237C367.518 960.116 367.699 961.016 368.259 961.709C368.819 962.401 369.661 962.767 370.56 962.767V959.934ZM707.946 959.237C707.871 959.587 707.442 959.934 707.084 959.934V962.767C708.778 962.767 710.361 961.487 710.716 959.83L707.946 959.237ZM707.862 959.133C707.93 959.133 707.962 959.146 707.969 959.149C707.976 959.152 707.969 959.15 707.96 959.139C707.952 959.128 707.951 959.121 707.953 959.128C707.954 959.136 707.96 959.17 707.946 959.237L710.716 959.83C710.904 958.95 710.723 958.05 710.163 957.358C709.603 956.665 708.761 956.3 707.862 956.3V959.133ZM371.338 956.3C369.644 956.3 368.061 957.58 367.706 959.237L370.476 959.83C370.551 959.479 370.98 959.133 371.338 959.133V956.3ZM683.258 959.133L751.004 959.133V956.3L683.258 956.3V959.133ZM750.226 959.934L682.48 959.934V962.767L750.226 962.767V959.934ZM682.48 959.934C682.412 959.934 682.38 959.921 682.373 959.918C682.366 959.915 682.373 959.917 682.382 959.928C682.39 959.939 682.391 959.945 682.389 959.938C682.388 959.931 682.382 959.897 682.396 959.83L679.626 959.237C679.438 960.116 679.619 961.016 680.179 961.709C680.739 962.401 681.581 962.767 682.48 962.767V959.934ZM751.088 959.237C751.013 959.587 750.584 959.934 750.226 959.934V962.767C751.92 962.767 753.503 961.487 753.858 959.83L751.088 959.237ZM751.004 959.133C751.072 959.133 751.104 959.146 751.111 959.149C751.118 959.152 751.111 959.15 751.102 959.139C751.094 959.128 751.093 959.121 751.095 959.128C751.096 959.136 751.102 959.17 751.088 959.237L753.858 959.83C754.046 958.95 753.865 958.05 753.305 957.358C752.745 956.665 751.903 956.3 751.004 956.3V959.133ZM683.258 956.3C681.564 956.3 679.98 957.58 679.626 959.237L682.396 959.83C682.471 959.479 682.9 959.133 683.258 959.133V956.3ZM297.551 963.292L367.374 963.292V960.459L297.551 960.459V963.292ZM366.809 963.097L296.986 963.097V965.93L366.809 965.93V963.097ZM296.986 963.097C297 963.097 297.116 963.112 297.216 963.237C297.317 963.361 297.307 963.478 297.305 963.491L294.535 962.898C294.376 963.64 294.527 964.416 295.014 965.018C295.501 965.62 296.228 965.93 296.986 965.93V963.097ZM367.055 962.898C367.056 962.897 367.052 962.912 367.035 962.939C367.018 962.966 366.991 962.997 366.955 963.026C366.919 963.055 366.883 963.075 366.853 963.086C366.824 963.097 366.808 963.097 366.809 963.097V965.93C368.222 965.93 369.53 964.873 369.825 963.491L367.055 962.898ZM367.374 963.292C367.36 963.292 367.245 963.277 367.144 963.152C367.043 963.028 367.053 962.911 367.055 962.898L369.825 963.491C369.984 962.749 369.833 961.973 369.346 961.371C368.859 960.769 368.132 960.459 367.374 960.459V963.292ZM297.551 960.459C296.138 960.459 294.83 961.516 294.535 962.898L297.305 963.491C297.304 963.492 297.308 963.477 297.325 963.45C297.342 963.423 297.369 963.392 297.405 963.363C297.441 963.334 297.477 963.315 297.507 963.303C297.536 963.292 297.552 963.292 297.551 963.292V960.459ZM295.923 964.205H320.584V961.372L295.923 961.372V964.205ZM320.795 964.189C322.349 963.954 326.781 963.458 331.794 963.399L331.761 960.567C326.609 960.627 322.046 961.135 320.372 961.388L320.795 964.189ZM331.752 963.399C333.629 963.433 337.959 963.553 340.394 963.763L340.638 960.941C338.095 960.722 333.677 960.6 331.803 960.567L331.752 963.399ZM295.742 965.051L320.403 965.051V962.218L295.742 962.218V965.051ZM368.346 962.218L343.961 962.218V965.051L368.346 965.051V962.218ZM343.764 962.232C342.171 962.455 337.366 962.942 331.224 963.044L331.271 965.876C337.517 965.773 342.438 965.278 344.158 965.037L343.764 962.232ZM331.287 963.044C329.469 962.994 326.753 962.893 324.51 962.753C323.384 962.682 322.402 962.604 321.718 962.52C321.367 962.477 321.144 962.438 321.032 962.41C320.96 962.393 321.015 962.399 321.116 962.451C321.159 962.473 321.322 962.558 321.481 962.74C321.665 962.951 321.906 963.378 321.788 963.931L319.018 963.338C318.894 963.917 319.143 964.37 319.35 964.606C319.532 964.814 319.731 964.924 319.824 964.972C320.023 965.074 320.228 965.13 320.355 965.161C320.638 965.231 320.998 965.286 321.373 965.332C322.144 965.426 323.194 965.509 324.334 965.58C326.622 965.723 329.374 965.825 331.209 965.876L331.287 963.044ZM368.484 961.573L344.099 961.573V964.406L368.484 964.406V961.573ZM344.236 961.58C343.983 961.555 343.718 961.524 343.505 961.49C343.398 961.473 343.32 961.458 343.272 961.447C343.188 961.427 343.267 961.437 343.394 961.503C343.436 961.524 343.512 961.567 343.6 961.637C343.681 961.702 343.834 961.839 343.954 962.067C344.09 962.325 344.167 962.674 344.073 963.052C343.987 963.397 343.794 963.619 343.672 963.733C343.456 963.932 343.241 963.998 343.231 964.001C343.179 964.019 343.154 964.022 343.175 964.018C343.284 963.997 343.6 963.96 344.269 963.928L344.133 961.099C343.466 961.131 342.966 961.173 342.636 961.237C342.548 961.254 342.437 961.279 342.321 961.318C342.246 961.344 341.987 961.432 341.748 961.653C341.613 961.778 341.413 962.011 341.324 962.368C341.227 962.757 341.306 963.118 341.448 963.386C341.67 963.81 342.034 963.989 342.092 964.018C342.306 964.129 342.531 964.183 342.632 964.207C342.77 964.239 342.92 964.266 343.062 964.288C343.35 964.334 343.675 964.372 343.962 964.4L344.236 961.58ZM391.622 964.504C391.819 964.522 392.022 964.546 392.18 964.572C392.26 964.585 392.31 964.595 392.333 964.601C392.397 964.617 392.286 964.599 392.134 964.512C392.094 964.489 391.766 964.311 391.579 963.892C391.464 963.637 391.416 963.32 391.497 962.991C391.572 962.684 391.732 962.475 391.848 962.356C392.052 962.145 392.264 962.066 392.291 962.056C392.353 962.031 392.391 962.023 392.384 962.025C392.327 962.038 392.1 962.074 391.562 962.111L391.76 964.937C392.297 964.9 392.727 964.854 393.025 964.784C393.105 964.766 393.213 964.737 393.327 964.692C393.407 964.661 393.654 964.561 393.879 964.33C394.005 964.201 394.171 963.981 394.248 963.664C394.331 963.325 394.282 962.998 394.163 962.733C393.966 962.294 393.616 962.096 393.542 962.053C393.321 961.927 393.094 961.871 393.009 961.85C392.884 961.819 392.753 961.795 392.633 961.776C392.391 961.736 392.12 961.705 391.885 961.683L391.622 964.504ZM397.47 964.348C397.773 964.378 398.088 964.418 398.339 964.463C398.465 964.485 398.554 964.505 398.607 964.52C398.703 964.546 398.602 964.532 398.452 964.434C398.396 964.397 398.101 964.203 397.949 963.789C397.861 963.55 397.836 963.274 397.903 962.995C397.967 962.731 398.095 962.541 398.198 962.422C398.382 962.211 398.574 962.128 398.6 962.116C398.653 962.092 398.679 962.087 398.652 962.094C398.518 962.131 398.135 962.197 397.327 962.268L397.575 965.09C398.385 965.019 398.993 964.937 399.395 964.828C399.503 964.799 399.633 964.758 399.766 964.698C399.872 964.65 400.118 964.53 400.333 964.284C400.607 963.97 400.831 963.421 400.608 962.813C400.443 962.364 400.115 962.136 400.008 962.066C399.757 961.901 399.483 961.823 399.357 961.788C399.189 961.742 399.007 961.704 398.834 961.674C398.487 961.612 398.094 961.563 397.748 961.529L397.47 964.348ZM402.661 964.186C403.058 964.227 403.476 964.283 403.811 964.346C403.98 964.378 404.106 964.407 404.187 964.431C404.312 964.468 404.225 964.46 404.083 964.358C404.021 964.314 403.751 964.116 403.621 963.713C403.548 963.488 403.533 963.236 403.592 962.985C403.65 962.746 403.761 962.568 403.855 962.454C404.023 962.248 404.2 962.165 404.22 962.155C404.263 962.134 404.275 962.134 404.23 962.147C404.022 962.209 403.495 962.306 402.442 962.411L402.722 965.23C403.779 965.125 404.545 965.008 405.036 964.862C405.167 964.824 405.317 964.772 405.464 964.7C405.589 964.639 405.836 964.505 406.046 964.249C406.304 963.934 406.502 963.417 406.316 962.842C406.17 962.391 405.858 962.145 405.731 962.054C405.458 961.859 405.148 961.761 404.986 961.714C404.781 961.653 404.555 961.603 404.336 961.562C403.896 961.479 403.394 961.414 402.95 961.368L402.661 964.186ZM408.258 964.06C408.775 964.108 409.325 964.176 409.773 964.256C409.998 964.296 410.174 964.335 410.298 964.369C410.36 964.387 410.393 964.398 410.403 964.403C410.423 964.41 410.371 964.393 410.291 964.338C410.243 964.305 409.967 964.117 409.83 963.715C409.753 963.487 409.735 963.23 409.796 962.974C409.854 962.73 409.969 962.553 410.062 962.442C410.227 962.244 410.394 962.169 410.397 962.168C410.424 962.155 410.415 962.163 410.344 962.183C410.034 962.274 409.321 962.402 407.97 962.539L408.256 965.357C409.61 965.22 410.555 965.074 411.142 964.902C411.295 964.856 411.463 964.799 411.624 964.722C411.76 964.656 412.018 964.518 412.235 964.258C412.504 963.936 412.716 963.399 412.512 962.801C412.354 962.339 412.024 962.092 411.892 962.001C411.601 961.802 411.262 961.698 411.061 961.641C410.816 961.573 410.541 961.515 410.268 961.467C409.719 961.369 409.087 961.292 408.524 961.239L408.258 964.06Z" fill="black" fill-opacity="0.3"/>
</g>
</g>
<defs>
<filter id="filter0_bii" x="244.198" y="-56.4363" width="653.262" height="735.05" filterUnits="userSpaceOnUse" color-interpolation-filters="sRGB">
<feFlood flood-opacity="0" result="BackgroundImageFix"/>
<feGaussianBlur in="BackgroundImage" stdDeviation="32.1909"/>
<feComposite in2="SourceAlpha" operator="in" result="effect1_backgroundBlur"/>
<feBlend mode="normal" in="SourceGraphic" in2="effect1_backgroundBlur" result="shape"/>
<feColorMatrix in="SourceAlpha" type="matrix" values="0 0 0 0 0 0 0 0 0 0 0 0 0 0 0 0 0 0 127 0" result="hardAlpha"/>
<feOffset dx="-0.515054" dy="-0.515054"/>
<feGaussianBlur stdDeviation="0.386291"/>
<feComposite in2="hardAlpha" operator="arithmetic" k2="-1" k3="1"/>
<feColorMatrix type="matrix" values="0 0 0 0 0 0 0 0 0 0 0 0 0 0 0 0 0 0 0.36 0"/>
<feBlend mode="normal" in2="shape" result="effect2_innerShadow"/>
<feColorMatrix in="SourceAlpha" type="matrix" values="0 0 0 0 0 0 0 0 0 0 0 0 0 0 0 0 0 0 127 0" result="hardAlpha"/>
<feOffset dx="1.28764" dy="1.03011"/>
<feGaussianBlur stdDeviation="0.515054"/>
<feComposite in2="hardAlpha" operator="arithmetic" k2="-1" k3="1"/>
<feColorMatrix type="matrix" values="0 0 0 0 1 0 0 0 0 1 0 0 0 0 1 0 0 0 0.25 0"/>
<feBlend mode="normal" in2="effect2_innerShadow" result="effect3_innerShadow"/>
</filter>
<filter id="filter1_i" x="406.093" y="146.379" width="68.2813" height="80.9278" filterUnits="userSpaceOnUse" color-interpolation-filters="sRGB">
<feFlood flood-opacity="0" result="BackgroundImageFix"/>
<feBlend mode="normal" in="SourceGraphic" in2="BackgroundImageFix" result="shape"/>
<feColorMatrix in="SourceAlpha" type="matrix" values="0 0 0 0 0 0 0 0 0 0 0 0 0 0 0 0 0 0 127 0" result="hardAlpha"/>
<feOffset dx="-0.772581" dy="-0.772581"/>
<feComposite in2="hardAlpha" operator="arithmetic" k2="-1" k3="1"/>
<feColorMatrix type="matrix" values="0 0 0 0 0 0 0 0 0 0 0 0 0 0 0 0 0 0 0.25 0"/>
<feBlend mode="normal" in2="shape" result="effect1_innerShadow"/>
</filter>
<filter id="filter2_f" x="595.264" y="331.437" width="384.215" height="367.456" filterUnits="userSpaceOnUse" color-interpolation-filters="sRGB">
<feFlood flood-opacity="0" result="BackgroundImageFix"/>
<feBlend mode="normal" in="SourceGraphic" in2="BackgroundImageFix" result="shape"/>
<feGaussianBlur stdDeviation="32.1909" result="effect1_foregroundBlur"/>
</filter>
<filter id="filter3_bii" x="487.214" y="255.124" width="679.303" height="751.807" filterUnits="userSpaceOnUse" color-interpolation-filters="sRGB">
<feFlood flood-opacity="0" result="BackgroundImageFix"/>
<feGaussianBlur in="BackgroundImage" stdDeviation="32.1909"/>
<feComposite in2="SourceAlpha" operator="in" result="effect1_backgroundBlur"/>
<feBlend mode="normal" in="SourceGraphic" in2="effect1_backgroundBlur" result="shape"/>
<feColorMatrix in="SourceAlpha" type="matrix" values="0 0 0 0 0 0 0 0 0 0 0 0 0 0 0 0 0 0 127 0" result="hardAlpha"/>
<feOffset dx="-0.515054" dy="-0.515054"/>
<feGaussianBlur stdDeviation="0.386291"/>
<feComposite in2="hardAlpha" operator="arithmetic" k2="-1" k3="1"/>
<feColorMatrix type="matrix" values="0 0 0 0 0 0 0 0 0 0 0 0 0 0 0 0 0 0 0.36 0"/>
<feBlend mode="normal" in2="shape" result="effect2_innerShadow"/>
<feColorMatrix in="SourceAlpha" type="matrix" values="0 0 0 0 0 0 0 0 0 0 0 0 0 0 0 0 0 0 127 0" result="hardAlpha"/>
<feOffset dx="1.28764" dy="1.03011"/>
<feGaussianBlur stdDeviation="0.515054"/>
<feComposite in2="hardAlpha" operator="arithmetic" k2="-1" k3="1"/>
<feColorMatrix type="matrix" values="0 0 0 0 1 0 0 0 0 1 0 0 0 0 1 0 0 0 0.25 0"/>
<feBlend mode="normal" in2="effect2_innerShadow" result="effect3_innerShadow"/>
</filter>
<filter id="filter4_i" x="648.502" y="673.204" width="71.565" height="82.3667" filterUnits="userSpaceOnUse" color-interpolation-filters="sRGB">
<feFlood flood-opacity="0" result="BackgroundImageFix"/>
<feBlend mode="normal" in="SourceGraphic" in2="BackgroundImageFix" result="shape"/>
<feColorMatrix in="SourceAlpha" type="matrix" values="0 0 0 0 0 0 0 0 0 0 0 0 0 0 0 0 0 0 127 0" result="hardAlpha"/>
<feOffset dx="-0.772581" dy="-0.772581"/>
<feComposite in2="hardAlpha" operator="arithmetic" k2="-1" k3="1"/>
<feColorMatrix type="matrix" values="0 0 0 0 0 0 0 0 0 0 0 0 0 0 0 0 0 0 0.25 0"/>
<feBlend mode="normal" in2="shape" result="effect1_innerShadow"/>
</filter>
<filter id="filter5_f" x="568.023" y="939.641" width="621.513" height="92.3446" filterUnits="userSpaceOnUse" color-interpolation-filters="sRGB">
<feFlood flood-opacity="0" result="BackgroundImageFix"/>
<feBlend mode="normal" in="SourceGraphic" in2="BackgroundImageFix" result="shape"/>
<feGaussianBlur stdDeviation="18" result="effect1_foregroundBlur"/>
</filter>
<filter id="filter6_f" x="194.584" y="918.584" width="621.513" height="92.3446" filterUnits="userSpaceOnUse" color-interpolation-filters="sRGB">
<feFlood flood-opacity="0" result="BackgroundImageFix"/>
<feBlend mode="normal" in="SourceGraphic" in2="BackgroundImageFix" result="shape"/>
<feGaussianBlur stdDeviation="18" result="effect1_foregroundBlur"/>
</filter>
<radialGradient id="paint0_radial" cx="0" cy="0" r="1" gradientUnits="userSpaceOnUse" gradientTransform="translate(-10.4298 -7.46826) rotate(60.0023) scale(582.825 367.372)">
<stop stop-color="white" stop-opacity="0.3"/>
<stop offset="1" stop-color="white" stop-opacity="0"/>
</radialGradient>
<linearGradient id="paint1_linear" x1="0" y1="0" x2="63.2229" y2="50.4753" gradientUnits="userSpaceOnUse">
<stop stop-color="#ABABAB"/>
<stop offset="0.3125" stop-color="white"/>
<stop offset="0.630208" stop-color="#BDBDBD"/>
<stop offset="1" stop-color="#5E5E5E"/>
</linearGradient>
<linearGradient id="paint2_linear" x1="419.673" y1="146.845" x2="466.565" y2="221.227" gradientUnits="userSpaceOnUse">
<stop stop-color="#7D7D7D"/>
<stop offset="0.494792" stop-color="white"/>
<stop offset="1" stop-color="#1C1C1C"/>
</linearGradient>
<radialGradient id="paint3_radial" cx="0" cy="0" r="1" gradientUnits="userSpaceOnUse" gradientTransform="translate(-10.4298 -7.46826) rotate(60.0023) scale(582.825 367.372)">
<stop stop-color="white" stop-opacity="0.3"/>
<stop offset="1" stop-color="white" stop-opacity="0"/>
</radialGradient>
<linearGradient id="paint4_linear" x1="0" y1="0" x2="63.2229" y2="50.4753" gradientUnits="userSpaceOnUse">
<stop stop-color="#ABABAB"/>
<stop offset="0.3125" stop-color="white"/>
<stop offset="0.630208" stop-color="#BDBDBD"/>
<stop offset="1" stop-color="#5E5E5E"/>
</linearGradient>
<linearGradient id="paint5_linear" x1="648.752" y1="715.923" x2="718.153" y2="719.494" gradientUnits="userSpaceOnUse">
<stop stop-color="#7D7D7D"/>
<stop offset="0.494792" stop-color="white"/>
<stop offset="1" stop-color="#1C1C1C"/>
</linearGradient>
</defs>
</svg>
