<svg width="996" height="1032" viewBox="0 0 996 1032" fill="none" xmlns="http://www.w3.org/2000/svg">
<g filter="url(#filter0_bii)">
<rect width="335.043" height="531.536" rx="19.3145" transform="matrix(0.285354 -0.958422 0.824126 0.566406 110 321.112)" fill="#6503FF" fill-opacity="0.2"/>
<rect width="335.043" height="531.536" rx="19.3145" transform="matrix(0.285354 -0.958422 0.824126 0.566406 110 321.112)" fill="url(#paint0_radial)"/>
</g>
<rect opacity="0.48" width="69.5323" height="69.5323" rx="34.7662" transform="matrix(0.824126 0.566406 -0.285354 0.958422 520.637 254.424)" fill="#3A3A3A"/>
<rect opacity="0.7" width="69.5323" height="69.5323" rx="34.7662" transform="matrix(0.824126 0.566406 -0.285354 0.958422 555.231 278.2)" fill="#040404"/>
<g filter="url(#filter1_i)">
<rect width="70.5624" height="50.4753" rx="9.01345" transform="matrix(0.824126 0.566406 -0.285354 0.958422 224.359 142.671)" fill="url(#paint1_linear)"/>
</g>
<path d="M219.307 159.369L239.082 172.96C241.665 169.349 247.929 162.554 252.317 164.265C253.643 165.918 256.512 170.558 257.372 175.893M214.69 174.877L234.465 188.467C232.178 196.147 236.399 205.809 238.795 209.68C244.302 211.21 250.796 204.831 253.356 201.451L272.909 214.89M276.427 203.074L256.873 189.635C256.564 187.1 256.65 181.802 259.475 180.897" stroke="url(#paint2_linear)" stroke-width="0.772581"/>
<path d="M294.538 217.812C294.804 219.779 294.707 224.112 292.186 225.71M300.052 218.182C300.415 221.256 300.115 228.275 296.01 231.757M305.072 218.065C305.509 222.181 304.981 231.768 299.377 237.193M310.227 218.783C310.881 223.742 310.379 235.448 303.136 242.601" stroke="white" stroke-width="2.8328" stroke-linecap="round" stroke-linejoin="round"/>
<path d="M181.984 306.67L177.616 303.668L173.621 317.086L176.259 318.899L177.514 314.682L179.245 315.871C181.519 317.435 183.894 316.596 184.653 314.046C185.412 311.497 184.259 308.234 181.984 306.67ZM180.101 312.996L178.37 311.807L179.398 308.356L181.128 309.546C181.936 310.101 182.307 311.256 182.016 312.234C181.724 313.211 180.909 313.551 180.101 312.996ZM191.599 317.897L191.331 318.797C191.004 317.695 190.327 316.699 189.223 315.94C187.064 314.456 184.627 315.437 183.777 318.293C182.926 321.149 184.05 324.577 186.209 326.061C187.314 326.82 188.253 326.934 189.014 326.58L188.745 327.481L191.218 329.18L194.071 319.596L191.599 317.897ZM187.514 323.679C186.377 322.898 185.821 321.43 186.249 319.993C186.677 318.555 187.77 318.22 188.907 319.002C190.044 319.784 190.6 321.251 190.172 322.689C189.744 324.126 188.652 324.461 187.514 323.679ZM200.893 323.961C199.789 323.202 198.85 323.088 198.089 323.443L198.357 322.542L195.885 320.842L191.89 334.26L194.362 335.96L195.772 331.225C196.099 332.327 196.776 333.323 197.88 334.082C200.039 335.566 202.476 334.585 203.326 331.729C204.176 328.873 203.052 325.445 200.893 323.961ZM198.196 331.02C197.059 330.239 196.503 328.771 196.931 327.334C197.359 325.896 198.451 325.562 199.588 326.343C200.726 327.125 201.282 328.592 200.854 330.03C200.425 331.467 199.333 331.802 198.196 331.02ZM206.594 335.361L212.445 339.382C212.62 339.063 212.767 338.702 212.887 338.3C213.748 335.405 212.613 332.016 210.207 330.362C207.602 328.572 205.166 329.553 204.316 332.409C203.465 335.265 204.556 338.67 207.375 340.608C208.94 341.684 210.36 341.851 211.556 341.103L209.972 338.421C209.516 338.616 208.848 338.526 208.172 338.062C207.266 337.439 206.61 336.573 206.594 335.361ZM207.184 333.18C207.705 332.361 208.492 332.254 209.431 332.9C210.173 333.41 210.795 334.322 210.727 335.615L207.184 333.18ZM217.68 337.877L218.188 336.171L215.716 334.472L212.862 344.056L215.334 345.755L216.624 341.423C217.189 339.525 218.782 340.043 219.747 340.937L220.717 337.678C219.679 336.965 218.392 336.819 217.68 337.877ZM222.597 351.07C224.212 352.18 225.904 352.165 227.058 351.157L225.327 348.235C224.864 348.725 224.134 348.709 223.409 348.21C222.337 347.474 221.814 346.029 222.208 344.706C222.602 343.384 223.661 343.027 224.733 343.763C225.458 344.261 225.931 345.072 226.012 345.935L228.605 345.962C228.336 343.999 227.209 342.048 225.61 340.949C223.105 339.227 220.586 340.151 219.736 343.007C218.885 345.863 220.092 349.348 222.597 351.07ZM235.16 347.512C234.072 346.764 233.111 346.658 232.455 347.061L233.864 342.327L231.392 340.627L227.397 354.045L229.869 355.745L231.427 350.512C231.833 349.151 232.642 348.968 233.548 349.591C234.339 350.134 234.817 351.132 234.463 352.321L232.836 357.784L235.309 359.483L237.061 353.598C237.831 351.01 236.824 348.656 235.16 347.512ZM245.843 355.178L245.575 356.078C245.248 354.976 244.571 353.98 243.467 353.221C241.308 351.737 238.871 352.718 238.021 355.574C237.171 358.43 238.295 361.858 240.454 363.342C241.558 364.101 242.497 364.215 243.258 363.861L242.99 364.762L245.462 366.461L248.315 356.877L245.843 355.178ZM241.759 360.96C240.621 360.179 240.065 358.711 240.493 357.274C240.921 355.836 242.014 355.501 243.151 356.283C244.288 357.065 244.844 358.532 244.416 359.97C243.988 361.407 242.896 361.742 241.759 360.96ZM251.617 358.13C252.424 358.685 253.334 358.363 253.614 357.424C253.893 356.485 253.452 355.234 252.644 354.679C251.836 354.124 250.926 354.446 250.647 355.385C250.367 356.324 250.809 357.575 251.617 358.13ZM247.276 367.708L249.748 369.407L252.602 359.823L250.129 358.123L247.276 367.708ZM259.32 364.117C258.232 363.369 257.271 363.263 256.615 363.666L256.883 362.765L254.411 361.066L251.557 370.65L254.03 372.35L255.588 367.117C255.993 365.756 256.802 365.573 257.708 366.196C258.5 366.739 258.977 367.737 258.623 368.926L256.997 374.389L259.469 376.088L261.221 370.203C261.991 367.615 260.985 365.261 259.32 364.117Z" fill="white"/>
<g filter="url(#filter2_f)">
<rect x="465.646" y="552.247" width="243.358" height="107.389" transform="rotate(-40 465.646 552.247)" fill="black" fill-opacity="0.51"/>
</g>
<g filter="url(#filter3_bii)">
<rect width="335.043" height="531.536" rx="19.3145" transform="matrix(-0.475931 -0.879483 0.760406 -0.649448 510.503 950.962)" fill="#6503FF" fill-opacity="0.2"/>
<rect width="335.043" height="531.536" rx="19.3145" transform="matrix(-0.475931 -0.879483 0.760406 -0.649448 510.503 950.962)" fill="url(#paint3_radial)"/>
</g>
<rect opacity="0.48" width="69.5323" height="69.5323" rx="34.7662" transform="matrix(0.760406 -0.649448 0.475931 0.879483 665.991 429.533)" fill="#3A3A3A"/>
<rect opacity="0.7" width="69.5323" height="69.5323" rx="34.7662" transform="matrix(0.760406 -0.649448 0.475931 0.879483 697.911 402.271)" fill="#040404"/>
<g filter="url(#filter4_i)">
<rect width="70.5624" height="50.4753" rx="9.01345" transform="matrix(0.760406 -0.649448 0.475931 0.879483 451.445 715.104)" fill="url(#paint4_linear)"/>
</g>
<path d="M459.698 730.522L477.944 714.938C476.878 709.848 475.551 698.619 478.764 694.421C480.463 693.796 484.818 693.049 488.649 695.061M467.399 744.752L485.644 729.169C489.458 736.216 497.681 736.723 501.316 736.095C504.954 730.479 504.004 719.213 503.075 714.282L521.116 698.873M515.249 688.03L497.207 703.44C495.434 702.367 492.085 699.261 492.868 695.421" stroke="url(#paint5_linear)" stroke-width="0.772581"/>
<path d="M533.426 675.057C534.814 675.859 537.542 678.43 537.348 682.305M536.325 668.773C538.468 670.088 542.817 674.421 543.066 681.23M538.673 662.794C541.518 664.613 547.402 670.671 548.171 680.347M541.621 657.13C545.111 659.171 552.364 666.4 553.448 678.986" stroke="white" stroke-width="2.8328" stroke-linecap="round" stroke-linejoin="round"/>
<path d="M537.508 857.992L532.52 862.253L539.183 874.565L541.251 872.799L539.214 869.035L542.043 866.619C544.491 864.527 544.64 861.186 543.517 859.11C542.412 857.07 539.85 855.992 537.508 857.992ZM540.821 864.525L538.053 866.889L535.768 862.667L538.627 860.225C539.646 859.355 540.913 859.765 541.503 860.855C542.084 861.928 541.946 863.563 540.821 864.525ZM552.345 863.684C553.425 862.762 553.991 861.507 554.1 860.23L554.69 861.321L556.713 859.593L551.897 850.693L549.874 852.42L550.455 853.493C549.469 853.152 548.342 853.369 547.262 854.291C545.133 856.11 544.535 859.526 546.001 862.235C547.458 864.926 550.216 865.502 552.345 863.684ZM551.571 861.31C550.309 862.388 548.822 862.064 547.984 860.516C547.156 858.985 547.473 857.146 548.735 856.068C549.951 855.029 551.505 855.27 552.334 856.801C553.171 858.349 552.788 860.271 551.571 861.31ZM558.235 844.919C557.14 845.854 556.58 847.079 556.455 848.369L555.874 847.296L553.867 849.01L560.682 861.604L562.689 859.89L560.1 855.105C561.101 855.434 562.223 855.247 563.318 854.312C565.447 852.494 566.02 849.073 564.563 846.381C563.097 843.673 560.364 843.101 558.235 844.919ZM561.845 852.535C560.628 853.574 559.065 853.315 558.227 851.767C557.399 850.237 557.792 848.333 559.008 847.293C560.271 846.215 561.749 846.522 562.577 848.052C563.414 849.6 563.107 851.457 561.845 852.535ZM572.329 846.616C574.352 844.888 574.856 842.451 574.669 840.913L572.526 841.843C572.584 842.772 572.267 843.788 571.294 844.62C569.894 845.815 568.719 845.533 567.963 844.506L573.94 839.402C573.833 839.081 573.691 838.817 573.538 838.536C572.158 835.985 569.619 835.197 567.094 837.353C564.676 839.418 564.168 842.835 565.605 845.491C567.128 848.306 569.865 848.72 572.329 846.616ZM567.173 843.046C566.728 841.935 566.974 840.336 568.145 839.336C569.346 838.31 570.552 838.566 571.234 839.578L567.173 843.046ZM575.435 832.518L574.721 831.199L572.713 832.913L577.53 841.814L579.537 840.099L577.443 836.23C576.149 833.837 576.57 832.192 578.374 831.088L577.194 828.907C575.888 829.739 575.329 831.091 575.435 832.518ZM586.703 834.339C588.817 832.533 589.303 829.855 588.874 828.241L586.68 829.241C586.912 830.123 586.569 831.419 585.565 832.276C584.288 833.367 582.791 832.82 582.039 831.43C581.277 830.023 581.442 828.108 582.719 827.017C583.723 826.16 584.837 826.288 585.404 826.884L586.942 824.671C585.914 823.594 583.734 823.141 581.605 824.959C579.263 826.959 578.624 830.463 580.061 833.119C581.508 835.792 584.346 836.352 586.703 834.339ZM591.235 816.734C590.125 817.683 589.602 818.977 589.499 820.224L586.757 815.158L584.75 816.872L591.698 829.713L593.706 827.998L591.326 823.601C590.479 822.035 590.657 820.392 591.782 819.43C592.892 818.482 593.891 818.89 594.624 820.244L597.204 825.011L599.211 823.296L596.394 818.09C595.109 815.715 593.242 815.02 591.235 816.734ZM604.578 819.072C605.658 818.15 606.224 816.895 606.334 815.618L606.924 816.709L608.946 814.981L604.13 806.081L602.107 807.809L602.688 808.882C601.703 808.54 600.575 808.757 599.495 809.68C597.366 811.498 596.769 814.914 598.235 817.623C599.691 820.314 602.449 820.891 604.578 819.072ZM603.805 816.698C602.542 817.776 601.055 817.452 600.217 815.904C599.389 814.374 599.706 812.535 600.968 811.456C602.185 810.417 603.739 810.659 604.567 812.189C605.405 813.737 605.021 815.659 603.805 816.698ZM606.443 802.28C607.112 801.708 607.321 800.655 606.902 799.881C606.502 799.143 605.646 798.999 604.977 799.571C604.308 800.142 604.099 801.195 604.499 801.934C604.918 802.708 605.774 802.851 606.443 802.28ZM610.901 813.312L612.924 811.584L608.107 802.684L606.085 804.412L610.901 813.312ZM614.463 796.896C613.353 797.844 612.831 799.139 612.727 800.385L612.117 799.259L610.11 800.974L614.926 809.874L616.934 808.16L614.554 803.762C613.707 802.197 613.885 800.553 615.01 799.592C616.121 798.644 617.119 799.051 617.852 800.405L620.432 805.172L622.439 803.458L619.622 798.251C618.337 795.876 616.471 795.181 614.463 796.896Z" fill="white"/>
<g opacity="0.6">
<g filter="url(#filter5_f)">
<path d="M947.096 994.57V993.153V994.57ZM950.844 977.058V978.474V977.058ZM418.716 994.57V995.986V994.57ZM550 982.408V983.825V982.408ZM886.523 982.408V980.992V982.408ZM887.301 978.774V977.358V978.774ZM550.778 978.774V980.19V978.774ZM861.92 982.408V980.992V982.408ZM929.665 982.408V983.825V982.408ZM930.443 978.774V980.19V978.774ZM862.698 978.774V977.358V978.774ZM476.426 985.571V986.988V985.571ZM546.249 985.571V984.155V985.571ZM546.813 982.933V981.517V982.933ZM476.99 982.933V984.35V982.933ZM500.023 983.846V985.263L500.13 985.263L500.235 985.247L500.023 983.846ZM511.217 983.041L511.242 981.625L511.222 981.624L511.201 981.625L511.217 983.041ZM499.842 984.692L501.227 984.989L501.594 983.276H499.842V984.692ZM523.401 984.692V983.276H523.302L523.204 983.289L523.401 984.692ZM510.687 985.518L510.648 986.934L510.679 986.934L510.71 986.934L510.687 985.518ZM523.539 984.048L523.401 985.457L523.47 985.464H523.539V984.048ZM571.325 982.741C570.546 982.668 569.855 983.241 569.783 984.02C569.71 984.799 570.282 985.489 571.061 985.562L571.325 982.741ZM571.002 983.169C570.221 983.224 569.633 983.901 569.688 984.681C569.743 985.462 570.42 986.05 571.2 985.995L571.002 983.169ZM577.188 982.587C576.41 982.51 575.716 983.079 575.639 983.858C575.563 984.636 576.131 985.329 576.91 985.406L577.188 982.587ZM576.766 983.326C575.987 983.395 575.411 984.082 575.48 984.861C575.548 985.641 576.236 986.217 577.015 986.148L576.766 983.326ZM582.389 982.426C581.611 982.346 580.915 982.912 580.836 983.691C580.756 984.469 581.322 985.164 582.1 985.244L582.389 982.426ZM581.881 983.469C581.103 983.546 580.534 984.24 580.612 985.019C580.689 985.797 581.383 986.365 582.162 986.288L581.881 983.469ZM587.963 982.297C587.185 982.224 586.494 982.795 586.42 983.574C586.347 984.353 586.918 985.044 587.697 985.117L587.963 982.297ZM587.409 983.597C586.631 983.676 586.064 984.371 586.143 985.149C586.222 985.927 586.917 986.494 587.695 986.415L587.409 983.597ZM422.463 978.474L950.844 978.474V975.641L422.463 975.641V978.474ZM947.096 993.153L418.716 993.153V995.986L947.096 995.986V993.153ZM956.539 985.517C955.644 989.7 951.373 993.153 947.096 993.153V995.986C952.709 995.986 958.134 991.599 959.309 986.11L956.539 985.517ZM950.844 978.474C952.93 978.474 954.538 979.292 955.525 980.513C956.512 981.734 956.976 983.477 956.539 985.517L959.309 986.11C959.907 983.315 959.303 980.68 957.728 978.732C956.153 976.784 953.703 975.641 950.844 975.641V978.474ZM413.02 986.11C413.916 981.928 418.186 978.474 422.463 978.474V975.641C416.85 975.641 411.425 980.028 410.25 985.517L413.02 986.11ZM410.25 985.517C409.652 988.313 410.256 990.948 411.832 992.896C413.407 994.844 415.857 995.986 418.716 995.986V993.153C416.629 993.153 415.022 992.336 414.034 991.115C413.047 989.894 412.584 988.15 413.02 986.11L410.25 985.517ZM550.778 980.19L887.301 980.19V977.358L550.778 977.358V980.19ZM886.523 980.992L550 980.992V983.825L886.523 983.825V980.992ZM550 980.992C549.932 980.992 549.899 980.979 549.893 980.976C549.886 980.973 549.892 980.975 549.901 980.986C549.91 980.996 549.911 981.003 549.909 980.996C549.907 980.989 549.901 980.954 549.916 980.888L547.146 980.295C546.957 981.174 547.139 982.074 547.699 982.767C548.258 983.459 549.101 983.825 550 983.825V980.992ZM887.385 980.295C887.31 980.645 886.882 980.992 886.523 980.992V983.825C888.218 983.825 889.801 982.544 890.156 980.888L887.385 980.295ZM887.301 980.19C887.369 980.19 887.402 980.204 887.409 980.207C887.415 980.21 887.409 980.208 887.4 980.197C887.391 980.186 887.391 980.179 887.392 980.186C887.394 980.194 887.4 980.228 887.385 980.295L890.156 980.888C890.344 980.008 890.162 979.108 889.603 978.416C889.043 977.723 888.2 977.358 887.301 977.358V980.19ZM550.778 977.358C549.083 977.358 547.5 978.638 547.146 980.295L549.916 980.888C549.991 980.537 550.42 980.19 550.778 980.19V977.358ZM862.698 980.19L930.443 980.19V977.358L862.698 977.358V980.19ZM929.665 980.992L861.92 980.992V983.825L929.665 983.825V980.992ZM861.92 980.992C861.852 980.992 861.819 980.979 861.812 980.976C861.806 980.973 861.812 980.975 861.821 980.986C861.83 980.996 861.83 981.003 861.829 980.996C861.827 980.989 861.821 980.954 861.835 980.888L859.065 980.295C858.877 981.174 859.058 982.074 859.618 982.767C860.178 983.459 861.02 983.825 861.92 983.825V980.992ZM930.528 980.295C930.453 980.645 930.024 980.992 929.665 980.992V983.825C931.36 983.825 932.943 982.544 933.298 980.888L930.528 980.295ZM930.443 980.19C930.511 980.19 930.544 980.204 930.551 980.207C930.557 980.21 930.551 980.208 930.542 980.197C930.533 980.186 930.533 980.179 930.534 980.186C930.536 980.194 930.542 980.228 930.528 980.295L933.298 980.888C933.486 980.008 933.304 979.108 932.745 978.416C932.185 977.723 931.342 977.358 930.443 977.358V980.19ZM862.698 977.358C861.003 977.358 859.42 978.638 859.065 980.295L861.835 980.888C861.91 980.537 862.339 980.19 862.698 980.19V977.358ZM476.99 984.35L546.813 984.35V981.517L476.99 981.517V984.35ZM546.249 984.155L476.426 984.155V986.988L546.249 986.988V984.155ZM476.426 984.155C476.439 984.155 476.555 984.17 476.656 984.295C476.757 984.419 476.747 984.535 476.744 984.549L473.974 983.956C473.815 984.698 473.966 985.474 474.453 986.076C474.94 986.678 475.667 986.988 476.426 986.988V984.155ZM546.495 983.956C546.495 983.955 546.492 983.97 546.475 983.997C546.457 984.024 546.43 984.055 546.395 984.084C546.359 984.113 546.323 984.132 546.293 984.144C546.263 984.155 546.248 984.155 546.249 984.155V986.988C547.662 986.988 548.969 985.931 549.265 984.549L546.495 983.956ZM546.813 984.35C546.8 984.35 546.684 984.335 546.583 984.21C546.482 984.085 546.492 983.969 546.495 983.956L549.265 984.549C549.424 983.807 549.273 983.031 548.786 982.429C548.299 981.827 547.572 981.517 546.813 981.517V984.35ZM476.99 981.517C475.577 981.517 474.27 982.574 473.974 983.956L476.744 984.549C476.744 984.55 476.747 984.535 476.764 984.508C476.782 984.481 476.809 984.45 476.844 984.421C476.88 984.392 476.916 984.372 476.946 984.361C476.976 984.35 476.991 984.35 476.99 984.35V981.517ZM475.363 985.263H500.023V982.43L475.363 982.43V985.263ZM500.235 985.247C501.788 985.012 506.221 984.516 511.234 984.457L511.201 981.625C506.048 981.685 501.485 982.193 499.812 982.446L500.235 985.247ZM511.192 984.457C513.069 984.491 517.398 984.611 519.834 984.821L520.077 981.999C517.534 981.78 513.117 981.658 511.242 981.625L511.192 984.457ZM475.182 986.108L499.842 986.108V983.276L475.182 983.276V986.108ZM547.786 983.276L523.401 983.276V986.108L547.786 986.108V983.276ZM523.204 983.289C521.61 983.513 516.806 984 510.664 984.101L510.71 986.934C516.956 986.831 521.877 986.336 523.598 986.095L523.204 983.289ZM510.726 984.102C508.909 984.052 506.193 983.951 503.95 983.811C502.823 983.74 501.841 983.662 501.158 983.578C500.806 983.535 500.584 983.496 500.471 983.468C500.4 983.451 500.454 983.457 500.555 983.509C500.599 983.531 500.762 983.616 500.921 983.798C501.105 984.008 501.346 984.436 501.227 984.989L498.457 984.396C498.333 984.975 498.583 985.428 498.789 985.664C498.971 985.872 499.17 985.982 499.263 986.03C499.463 986.132 499.668 986.188 499.794 986.219C500.077 986.289 500.437 986.343 500.813 986.389C501.583 986.484 502.634 986.567 503.773 986.638C506.062 986.781 508.813 986.883 510.648 986.934L510.726 984.102ZM547.924 982.631L523.539 982.631V985.464L547.924 985.464V982.631ZM523.676 982.638C523.423 982.613 523.157 982.582 522.945 982.548C522.837 982.531 522.76 982.516 522.712 982.505C522.627 982.485 522.706 982.495 522.834 982.561C522.875 982.582 522.952 982.625 523.04 982.695C523.12 982.759 523.274 982.897 523.394 983.125C523.529 983.382 523.606 983.732 523.513 984.11C523.427 984.455 523.234 984.677 523.111 984.791C522.896 984.99 522.68 985.055 522.67 985.059C522.619 985.076 522.593 985.08 522.615 985.076C522.723 985.055 523.04 985.018 523.709 984.986L523.572 982.156C522.905 982.189 522.406 982.231 522.076 982.295C521.988 982.312 521.876 982.337 521.76 982.376C521.685 982.402 521.427 982.49 521.187 982.711C521.053 982.836 520.852 983.069 520.764 983.426C520.667 983.815 520.746 984.175 520.887 984.444C521.11 984.868 521.474 985.046 521.531 985.076C521.745 985.187 521.97 985.241 522.071 985.264C522.21 985.297 522.359 985.324 522.502 985.346C522.789 985.391 523.115 985.43 523.401 985.457L523.676 982.638ZM571.061 985.562C571.259 985.58 571.462 985.604 571.619 985.63C571.699 985.643 571.749 985.653 571.773 985.659C571.836 985.675 571.725 985.656 571.574 985.57C571.534 985.547 571.206 985.369 571.018 984.95C570.904 984.695 570.856 984.378 570.936 984.049C571.011 983.742 571.171 983.533 571.287 983.414C571.492 983.203 571.703 983.124 571.731 983.113C571.793 983.089 571.831 983.081 571.823 983.083C571.767 983.096 571.539 983.132 571.002 983.169L571.2 985.995C571.737 985.957 572.166 985.912 572.464 985.842C572.545 985.824 572.653 985.795 572.767 985.75C572.847 985.719 573.094 985.619 573.318 985.388C573.444 985.259 573.61 985.039 573.688 984.722C573.771 984.383 573.722 984.056 573.603 983.791C573.406 983.352 573.055 983.154 572.981 983.111C572.761 982.985 572.534 982.929 572.449 982.908C572.324 982.877 572.192 982.853 572.072 982.833C571.83 982.794 571.56 982.763 571.325 982.741L571.061 985.562ZM576.91 985.406C577.212 985.436 577.528 985.476 577.778 985.521C577.905 985.543 577.994 985.563 578.047 985.578C578.143 985.604 578.041 985.59 577.892 985.491C577.836 985.455 577.54 985.261 577.388 984.847C577.301 984.608 577.275 984.332 577.343 984.053C577.406 983.789 577.534 983.599 577.637 983.48C577.821 983.269 578.014 983.185 578.04 983.174C578.093 983.15 578.118 983.145 578.092 983.152C577.958 983.188 577.575 983.255 576.766 983.326L577.015 986.148C577.825 986.076 578.433 985.995 578.835 985.886C578.942 985.857 579.073 985.815 579.206 985.755C579.311 985.708 579.558 985.588 579.772 985.342C580.047 985.027 580.271 984.479 580.048 983.871C579.883 983.422 579.554 983.194 579.448 983.124C579.197 982.959 578.923 982.881 578.797 982.846C578.628 982.8 578.446 982.762 578.274 982.732C577.927 982.67 577.534 982.621 577.188 982.587L576.91 985.406ZM582.1 985.244C582.498 985.285 582.915 985.341 583.251 985.404C583.42 985.436 583.545 985.465 583.626 985.489C583.751 985.526 583.664 985.518 583.523 985.416C583.461 985.372 583.19 985.174 583.06 984.771C582.987 984.546 582.972 984.294 583.032 984.043C583.089 983.803 583.2 983.626 583.294 983.511C583.463 983.306 583.639 983.223 583.659 983.213C583.703 983.192 583.714 983.191 583.67 983.205C583.461 983.267 582.934 983.364 581.881 983.469L582.162 986.288C583.218 986.183 583.984 986.066 584.476 985.92C584.607 985.881 584.756 985.83 584.904 985.757C585.029 985.696 585.276 985.563 585.485 985.307C585.744 984.992 585.942 984.475 585.756 983.9C585.61 983.448 585.297 983.203 585.17 983.112C584.898 982.917 584.588 982.819 584.426 982.772C584.22 982.711 583.994 982.661 583.776 982.62C583.336 982.537 582.833 982.472 582.389 982.426L582.1 985.244ZM587.697 985.117C588.215 985.166 588.765 985.234 589.212 985.314C589.437 985.354 589.614 985.393 589.738 985.427C589.799 985.444 589.832 985.456 589.843 985.461C589.862 985.468 589.811 985.451 589.731 985.396C589.682 985.363 589.407 985.174 589.27 984.773C589.192 984.545 589.174 984.288 589.236 984.031C589.294 983.788 589.408 983.611 589.501 983.499C589.666 983.302 589.834 983.227 589.836 983.226C589.863 983.213 589.854 983.22 589.784 983.241C589.473 983.332 588.761 983.46 587.409 983.597L587.695 986.415C589.049 986.278 589.995 986.131 590.581 985.959C590.735 985.914 590.902 985.857 591.063 985.779C591.2 985.714 591.458 985.576 591.675 985.316C591.944 984.994 592.155 984.457 591.951 983.859C591.794 983.397 591.464 983.149 591.331 983.059C591.041 982.86 590.702 982.755 590.5 982.699C590.255 982.63 589.98 982.573 589.707 982.525C589.159 982.427 588.526 982.35 587.963 982.297L587.697 985.117Z" fill="black" fill-opacity="0.74"/>
</g>
<g filter="url(#filter6_f)">
<path d="M573.656 973.512V972.095V973.512ZM577.404 956V957.416V956ZM45.2761 973.512V974.928V973.512ZM176.56 961.35V962.767V961.35ZM513.084 961.35V959.934V961.35ZM513.862 957.716V956.3V957.716ZM177.338 957.716V959.133V957.716ZM488.48 961.35V959.934V961.35ZM556.226 961.35V962.767V961.35ZM557.004 957.716V959.133V957.716ZM489.258 957.716V956.3V957.716ZM102.986 964.514V965.93V964.514ZM172.809 964.514V963.097V964.514ZM173.374 961.875V960.459V961.875ZM103.551 961.875V963.292V961.875ZM126.584 962.789V964.205L126.69 964.205L126.795 964.189L126.584 962.789ZM137.778 961.983L137.803 960.567L137.782 960.567L137.761 960.567L137.778 961.983ZM126.403 963.634L127.788 963.931L128.154 962.218H126.403V963.634ZM149.961 963.634V962.218H149.862L149.764 962.232L149.961 963.634ZM137.248 964.46L137.209 965.876L137.24 965.877L137.271 965.876L137.248 964.46ZM150.099 962.99L149.962 964.4L150.03 964.406H150.099V962.99ZM197.885 961.683C197.106 961.611 196.416 962.183 196.343 962.962C196.27 963.741 196.843 964.431 197.622 964.504L197.885 961.683ZM197.562 962.111C196.782 962.166 196.194 962.843 196.248 963.623C196.303 964.404 196.98 964.992 197.76 964.937L197.562 962.111ZM203.748 961.529C202.97 961.452 202.277 962.021 202.2 962.8C202.123 963.578 202.692 964.272 203.47 964.348L203.748 961.529ZM203.327 962.268C202.547 962.337 201.971 963.024 202.04 963.803C202.109 964.583 202.796 965.159 203.575 965.09L203.327 962.268ZM208.95 961.368C208.172 961.288 207.476 961.855 207.396 962.633C207.316 963.411 207.882 964.106 208.661 964.186L208.95 961.368ZM208.442 962.411C207.663 962.488 207.095 963.182 207.172 963.961C207.25 964.739 207.944 965.307 208.722 965.23L208.442 962.411ZM214.524 961.239C213.745 961.166 213.054 961.737 212.981 962.516C212.907 963.295 213.479 963.986 214.258 964.06L214.524 961.239ZM213.97 962.539C213.191 962.618 212.625 963.313 212.704 964.091C212.783 964.87 213.477 965.436 214.256 965.357L213.97 962.539ZM49.0239 957.416L577.404 957.416V954.584L49.0239 954.584V957.416ZM573.656 972.095L45.2761 972.095V974.928L573.656 974.928V972.095ZM583.099 964.46C582.204 968.642 577.934 972.095 573.656 972.095V974.928C579.27 974.928 584.695 970.541 585.869 965.052L583.099 964.46ZM577.404 957.416C579.491 957.416 581.098 958.234 582.086 959.455C583.073 960.676 583.536 962.419 583.099 964.46L585.869 965.052C586.468 962.257 585.863 959.622 584.288 957.674C582.713 955.726 580.263 954.584 577.404 954.584V957.416ZM39.5809 965.052C40.476 960.87 44.7467 957.416 49.0239 957.416V954.584C43.4106 954.584 37.9855 958.971 36.8108 964.459L39.5809 965.052ZM36.8108 964.459C36.2125 967.255 36.8168 969.89 38.392 971.838C39.9672 973.786 42.4172 974.928 45.2761 974.928V972.095C43.1896 972.095 41.5821 971.278 40.5948 970.057C39.6074 968.836 39.1442 967.093 39.5809 965.052L36.8108 964.459ZM177.338 959.133L513.862 959.133V956.3L177.338 956.3V959.133ZM513.084 959.934L176.56 959.934V962.767L513.084 962.767V959.934ZM176.56 959.934C176.492 959.934 176.46 959.921 176.453 959.918C176.447 959.915 176.453 959.917 176.462 959.928C176.471 959.939 176.471 959.945 176.47 959.938C176.468 959.931 176.462 959.897 176.476 959.83L173.706 959.237C173.518 960.116 173.699 961.016 174.259 961.709C174.819 962.401 175.661 962.767 176.56 962.767V959.934ZM513.946 959.237C513.871 959.587 513.442 959.934 513.084 959.934V962.767C514.778 962.767 516.361 961.487 516.716 959.83L513.946 959.237ZM513.862 959.133C513.93 959.133 513.962 959.146 513.969 959.149C513.976 959.152 513.969 959.15 513.96 959.139C513.952 959.128 513.951 959.121 513.953 959.128C513.954 959.136 513.96 959.17 513.946 959.237L516.716 959.83C516.904 958.95 516.723 958.05 516.163 957.358C515.603 956.665 514.761 956.3 513.862 956.3V959.133ZM177.338 956.3C175.644 956.3 174.061 957.58 173.706 959.237L176.476 959.83C176.551 959.479 176.98 959.133 177.338 959.133V956.3ZM489.258 959.133L557.004 959.133V956.3L489.258 956.3V959.133ZM556.226 959.934L488.48 959.934V962.767L556.226 962.767V959.934ZM488.48 959.934C488.412 959.934 488.38 959.921 488.373 959.918C488.366 959.915 488.373 959.917 488.382 959.928C488.39 959.939 488.391 959.945 488.389 959.938C488.388 959.931 488.382 959.897 488.396 959.83L485.626 959.237C485.438 960.116 485.619 961.016 486.179 961.709C486.739 962.401 487.581 962.767 488.48 962.767V959.934ZM557.088 959.237C557.013 959.587 556.584 959.934 556.226 959.934V962.767C557.92 962.767 559.503 961.487 559.858 959.83L557.088 959.237ZM557.004 959.133C557.072 959.133 557.104 959.146 557.111 959.149C557.118 959.152 557.111 959.15 557.102 959.139C557.094 959.128 557.093 959.121 557.095 959.128C557.096 959.136 557.102 959.17 557.088 959.237L559.858 959.83C560.046 958.95 559.865 958.05 559.305 957.358C558.745 956.665 557.903 956.3 557.004 956.3V959.133ZM489.258 956.3C487.564 956.3 485.98 957.58 485.626 959.237L488.396 959.83C488.471 959.479 488.9 959.133 489.258 959.133V956.3ZM103.551 963.292L173.374 963.292V960.459L103.551 960.459V963.292ZM172.809 963.097L102.986 963.097V965.93L172.809 965.93V963.097ZM102.986 963.097C103 963.097 103.116 963.112 103.216 963.237C103.317 963.361 103.307 963.478 103.305 963.491L100.535 962.898C100.376 963.64 100.527 964.416 101.014 965.018C101.501 965.62 102.228 965.93 102.986 965.93V963.097ZM173.055 962.898C173.056 962.897 173.052 962.912 173.035 962.939C173.018 962.966 172.991 962.997 172.955 963.026C172.919 963.055 172.883 963.075 172.853 963.086C172.824 963.097 172.808 963.097 172.809 963.097V965.93C174.222 965.93 175.53 964.873 175.825 963.491L173.055 962.898ZM173.374 963.292C173.36 963.292 173.245 963.277 173.144 963.152C173.043 963.028 173.053 962.911 173.055 962.898L175.825 963.491C175.984 962.749 175.833 961.973 175.346 961.371C174.859 960.769 174.132 960.459 173.374 960.459V963.292ZM103.551 960.459C102.138 960.459 100.83 961.516 100.535 962.898L103.305 963.491C103.304 963.492 103.308 963.477 103.325 963.45C103.342 963.423 103.369 963.392 103.405 963.363C103.441 963.334 103.477 963.315 103.507 963.303C103.536 963.292 103.552 963.292 103.551 963.292V960.459ZM101.923 964.205H126.584V961.372L101.923 961.372V964.205ZM126.795 964.189C128.349 963.954 132.781 963.458 137.794 963.399L137.761 960.567C132.609 960.627 128.046 961.135 126.372 961.388L126.795 964.189ZM137.752 963.399C139.629 963.433 143.959 963.553 146.394 963.763L146.638 960.941C144.095 960.722 139.677 960.6 137.803 960.567L137.752 963.399ZM101.742 965.051L126.403 965.051V962.218L101.742 962.218V965.051ZM174.346 962.218L149.961 962.218V965.051L174.346 965.051V962.218ZM149.764 962.232C148.171 962.455 143.366 962.942 137.224 963.044L137.271 965.876C143.517 965.773 148.438 965.278 150.158 965.037L149.764 962.232ZM137.287 963.044C135.469 962.994 132.753 962.893 130.51 962.753C129.384 962.682 128.402 962.604 127.718 962.52C127.367 962.477 127.144 962.438 127.032 962.41C126.96 962.393 127.015 962.399 127.116 962.451C127.159 962.473 127.322 962.558 127.481 962.74C127.665 962.951 127.906 963.378 127.788 963.931L125.018 963.338C124.894 963.917 125.143 964.37 125.35 964.606C125.532 964.814 125.731 964.924 125.824 964.972C126.023 965.074 126.228 965.13 126.355 965.161C126.638 965.231 126.998 965.286 127.373 965.332C128.144 965.426 129.194 965.509 130.334 965.58C132.622 965.723 135.374 965.825 137.209 965.876L137.287 963.044ZM174.484 961.573L150.099 961.573V964.406L174.484 964.406V961.573ZM150.236 961.58C149.983 961.555 149.718 961.524 149.505 961.49C149.398 961.473 149.32 961.458 149.272 961.447C149.188 961.427 149.267 961.437 149.394 961.503C149.436 961.524 149.512 961.567 149.6 961.637C149.681 961.702 149.834 961.839 149.954 962.067C150.09 962.325 150.167 962.674 150.073 963.052C149.987 963.397 149.794 963.619 149.672 963.733C149.456 963.932 149.241 963.998 149.231 964.001C149.179 964.019 149.154 964.022 149.175 964.018C149.284 963.997 149.6 963.96 150.269 963.928L150.133 961.099C149.466 961.131 148.966 961.173 148.636 961.237C148.548 961.254 148.437 961.279 148.321 961.318C148.246 961.344 147.987 961.432 147.748 961.653C147.613 961.778 147.413 962.011 147.324 962.368C147.227 962.757 147.306 963.118 147.448 963.386C147.67 963.81 148.034 963.989 148.092 964.018C148.306 964.129 148.531 964.183 148.632 964.207C148.77 964.239 148.92 964.266 149.062 964.288C149.35 964.334 149.675 964.372 149.962 964.4L150.236 961.58ZM197.622 964.504C197.819 964.522 198.022 964.546 198.18 964.572C198.26 964.585 198.31 964.595 198.333 964.601C198.397 964.617 198.286 964.599 198.134 964.512C198.094 964.489 197.766 964.311 197.579 963.892C197.464 963.637 197.416 963.32 197.497 962.991C197.572 962.684 197.732 962.475 197.848 962.356C198.052 962.145 198.264 962.066 198.291 962.056C198.353 962.031 198.391 962.023 198.384 962.025C198.327 962.038 198.1 962.074 197.562 962.111L197.76 964.937C198.297 964.9 198.727 964.854 199.025 964.784C199.105 964.766 199.213 964.737 199.327 964.692C199.407 964.661 199.654 964.561 199.879 964.33C200.005 964.201 200.171 963.981 200.248 963.664C200.331 963.325 200.282 962.998 200.163 962.733C199.966 962.294 199.616 962.096 199.542 962.053C199.321 961.927 199.094 961.871 199.009 961.85C198.884 961.819 198.753 961.795 198.633 961.776C198.391 961.736 198.12 961.705 197.885 961.683L197.622 964.504ZM203.47 964.348C203.773 964.378 204.088 964.418 204.339 964.463C204.465 964.485 204.554 964.505 204.607 964.52C204.703 964.546 204.602 964.532 204.452 964.434C204.396 964.397 204.101 964.203 203.949 963.789C203.861 963.55 203.836 963.274 203.903 962.995C203.967 962.731 204.095 962.541 204.198 962.422C204.382 962.211 204.574 962.128 204.6 962.116C204.653 962.092 204.679 962.087 204.652 962.094C204.518 962.131 204.135 962.197 203.327 962.268L203.575 965.09C204.385 965.019 204.993 964.937 205.395 964.828C205.503 964.799 205.633 964.758 205.766 964.698C205.872 964.65 206.118 964.53 206.333 964.284C206.607 963.97 206.831 963.421 206.608 962.813C206.443 962.364 206.115 962.136 206.008 962.066C205.757 961.901 205.483 961.823 205.357 961.788C205.189 961.742 205.007 961.704 204.834 961.674C204.487 961.612 204.094 961.563 203.748 961.529L203.47 964.348ZM208.661 964.186C209.058 964.227 209.476 964.283 209.811 964.346C209.98 964.378 210.106 964.407 210.187 964.431C210.312 964.468 210.225 964.46 210.083 964.358C210.021 964.314 209.751 964.116 209.621 963.713C209.548 963.488 209.533 963.236 209.592 962.985C209.65 962.746 209.761 962.568 209.855 962.454C210.023 962.248 210.2 962.165 210.22 962.155C210.263 962.134 210.275 962.134 210.23 962.147C210.022 962.209 209.495 962.306 208.442 962.411L208.722 965.23C209.779 965.125 210.545 965.008 211.036 964.862C211.167 964.824 211.317 964.772 211.464 964.7C211.589 964.639 211.836 964.505 212.046 964.249C212.304 963.934 212.502 963.417 212.316 962.842C212.17 962.391 211.858 962.145 211.731 962.054C211.458 961.859 211.148 961.761 210.986 961.714C210.781 961.653 210.555 961.603 210.336 961.562C209.896 961.479 209.394 961.414 208.95 961.368L208.661 964.186ZM214.258 964.06C214.775 964.108 215.325 964.176 215.773 964.256C215.998 964.296 216.174 964.335 216.298 964.369C216.36 964.387 216.393 964.398 216.403 964.403C216.423 964.41 216.371 964.393 216.291 964.338C216.243 964.305 215.967 964.117 215.83 963.715C215.753 963.487 215.735 963.23 215.796 962.974C215.854 962.73 215.969 962.553 216.062 962.442C216.227 962.244 216.394 962.169 216.397 962.168C216.424 962.155 216.415 962.163 216.344 962.183C216.034 962.274 215.321 962.402 213.97 962.539L214.256 965.357C215.61 965.22 216.555 965.074 217.142 964.902C217.295 964.856 217.463 964.799 217.624 964.722C217.76 964.656 218.018 964.518 218.235 964.258C218.504 963.936 218.716 963.399 218.512 962.801C218.354 962.339 218.024 962.092 217.892 962.001C217.601 961.802 217.262 961.698 217.061 961.641C216.816 961.573 216.541 961.515 216.268 961.467C215.719 961.369 215.087 961.292 214.524 961.239L214.258 964.06Z" fill="black" fill-opacity="0.3"/>
</g>
</g>
<defs>
<filter id="filter0_bii" x="50.1979" y="-56.4363" width="653.262" height="735.05" filterUnits="userSpaceOnUse" color-interpolation-filters="sRGB">
<feFlood flood-opacity="0" result="BackgroundImageFix"/>
<feGaussianBlur in="BackgroundImage" stdDeviation="32.1909"/>
<feComposite in2="SourceAlpha" operator="in" result="effect1_backgroundBlur"/>
<feBlend mode="normal" in="SourceGraphic" in2="effect1_backgroundBlur" result="shape"/>
<feColorMatrix in="SourceAlpha" type="matrix" values="0 0 0 0 0 0 0 0 0 0 0 0 0 0 0 0 0 0 127 0" result="hardAlpha"/>
<feOffset dx="-0.515054" dy="-0.515054"/>
<feGaussianBlur stdDeviation="0.386291"/>
<feComposite in2="hardAlpha" operator="arithmetic" k2="-1" k3="1"/>
<feColorMatrix type="matrix" values="0 0 0 0 0 0 0 0 0 0 0 0 0 0 0 0 0 0 0.36 0"/>
<feBlend mode="normal" in2="shape" result="effect2_innerShadow"/>
<feColorMatrix in="SourceAlpha" type="matrix" values="0 0 0 0 0 0 0 0 0 0 0 0 0 0 0 0 0 0 127 0" result="hardAlpha"/>
<feOffset dx="1.28764" dy="1.03011"/>
<feGaussianBlur stdDeviation="0.515054"/>
<feComposite in2="hardAlpha" operator="arithmetic" k2="-1" k3="1"/>
<feColorMatrix type="matrix" values="0 0 0 0 1 0 0 0 0 1 0 0 0 0 1 0 0 0 0.25 0"/>
<feBlend mode="normal" in2="effect2_innerShadow" result="effect3_innerShadow"/>
</filter>
<filter id="filter1_i" x="212.093" y="146.379" width="68.2813" height="80.9278" filterUnits="userSpaceOnUse" color-interpolation-filters="sRGB">
<feFlood flood-opacity="0" result="BackgroundImageFix"/>
<feBlend mode="normal" in="SourceGraphic" in2="BackgroundImageFix" result="shape"/>
<feColorMatrix in="SourceAlpha" type="matrix" values="0 0 0 0 0 0 0 0 0 0 0 0 0 0 0 0 0 0 127 0" result="hardAlpha"/>
<feOffset dx="-0.772581" dy="-0.772581"/>
<feComposite in2="hardAlpha" operator="arithmetic" k2="-1" k3="1"/>
<feColorMatrix type="matrix" values="0 0 0 0 0 0 0 0 0 0 0 0 0 0 0 0 0 0 0.25 0"/>
<feBlend mode="normal" in2="shape" result="effect1_innerShadow"/>
</filter>
<filter id="filter2_f" x="401.264" y="331.437" width="384.215" height="367.456" filterUnits="userSpaceOnUse" color-interpolation-filters="sRGB">
<feFlood flood-opacity="0" result="BackgroundImageFix"/>
<feBlend mode="normal" in="SourceGraphic" in2="BackgroundImageFix" result="shape"/>
<feGaussianBlur stdDeviation="32.1909" result="effect1_foregroundBlur"/>
</filter>
<filter id="filter3_bii" x="293.214" y="255.124" width="679.303" height="751.807" filterUnits="userSpaceOnUse" color-interpolation-filters="sRGB">
<feFlood flood-opacity="0" result="BackgroundImageFix"/>
<feGaussianBlur in="BackgroundImage" stdDeviation="32.1909"/>
<feComposite in2="SourceAlpha" operator="in" result="effect1_backgroundBlur"/>
<feBlend mode="normal" in="SourceGraphic" in2="effect1_backgroundBlur" result="shape"/>
<feColorMatrix in="SourceAlpha" type="matrix" values="0 0 0 0 0 0 0 0 0 0 0 0 0 0 0 0 0 0 127 0" result="hardAlpha"/>
<feOffset dx="-0.515054" dy="-0.515054"/>
<feGaussianBlur stdDeviation="0.386291"/>
<feComposite in2="hardAlpha" operator="arithmetic" k2="-1" k3="1"/>
<feColorMatrix type="matrix" values="0 0 0 0 0 0 0 0 0 0 0 0 0 0 0 0 0 0 0.36 0"/>
<feBlend mode="normal" in2="shape" result="effect2_innerShadow"/>
<feColorMatrix in="SourceAlpha" type="matrix" values="0 0 0 0 0 0 0 0 0 0 0 0 0 0 0 0 0 0 127 0" result="hardAlpha"/>
<feOffset dx="1.28764" dy="1.03011"/>
<feGaussianBlur stdDeviation="0.515054"/>
<feComposite in2="hardAlpha" operator="arithmetic" k2="-1" k3="1"/>
<feColorMatrix type="matrix" values="0 0 0 0 1 0 0 0 0 1 0 0 0 0 1 0 0 0 0.25 0"/>
<feBlend mode="normal" in2="effect2_innerShadow" result="effect3_innerShadow"/>
</filter>
<filter id="filter4_i" x="454.502" y="673.204" width="71.565" height="82.3667" filterUnits="userSpaceOnUse" color-interpolation-filters="sRGB">
<feFlood flood-opacity="0" result="BackgroundImageFix"/>
<feBlend mode="normal" in="SourceGraphic" in2="BackgroundImageFix" result="shape"/>
<feColorMatrix in="SourceAlpha" type="matrix" values="0 0 0 0 0 0 0 0 0 0 0 0 0 0 0 0 0 0 127 0" result="hardAlpha"/>
<feOffset dx="-0.772581" dy="-0.772581"/>
<feComposite in2="hardAlpha" operator="arithmetic" k2="-1" k3="1"/>
<feColorMatrix type="matrix" values="0 0 0 0 0 0 0 0 0 0 0 0 0 0 0 0 0 0 0.25 0"/>
<feBlend mode="normal" in2="shape" result="effect1_innerShadow"/>
</filter>
<filter id="filter5_f" x="374.023" y="939.641" width="621.513" height="92.3446" filterUnits="userSpaceOnUse" color-interpolation-filters="sRGB">
<feFlood flood-opacity="0" result="BackgroundImageFix"/>
<feBlend mode="normal" in="SourceGraphic" in2="BackgroundImageFix" result="shape"/>
<feGaussianBlur stdDeviation="18" result="effect1_foregroundBlur"/>
</filter>
<filter id="filter6_f" x="0.583857" y="918.584" width="621.513" height="92.3446" filterUnits="userSpaceOnUse" color-interpolation-filters="sRGB">
<feFlood flood-opacity="0" result="BackgroundImageFix"/>
<feBlend mode="normal" in="SourceGraphic" in2="BackgroundImageFix" result="shape"/>
<feGaussianBlur stdDeviation="18" result="effect1_foregroundBlur"/>
</filter>
<radialGradient id="paint0_radial" cx="0" cy="0" r="1" gradientUnits="userSpaceOnUse" gradientTransform="translate(-10.4298 -7.46826) rotate(60.0023) scale(582.825 367.372)">
<stop stop-color="white" stop-opacity="0.3"/>
<stop offset="1" stop-color="white" stop-opacity="0"/>
</radialGradient>
<linearGradient id="paint1_linear" x1="0" y1="0" x2="63.2229" y2="50.4753" gradientUnits="userSpaceOnUse">
<stop stop-color="#ABABAB"/>
<stop offset="0.3125" stop-color="white"/>
<stop offset="0.630208" stop-color="#BDBDBD"/>
<stop offset="1" stop-color="#5E5E5E"/>
</linearGradient>
<linearGradient id="paint2_linear" x1="225.673" y1="146.845" x2="272.565" y2="221.227" gradientUnits="userSpaceOnUse">
<stop stop-color="#7D7D7D"/>
<stop offset="0.494792" stop-color="white"/>
<stop offset="1" stop-color="#1C1C1C"/>
</linearGradient>
<radialGradient id="paint3_radial" cx="0" cy="0" r="1" gradientUnits="userSpaceOnUse" gradientTransform="translate(-10.4298 -7.46826) rotate(60.0023) scale(582.825 367.372)">
<stop stop-color="white" stop-opacity="0.3"/>
<stop offset="1" stop-color="white" stop-opacity="0"/>
</radialGradient>
<linearGradient id="paint4_linear" x1="0" y1="0" x2="63.2229" y2="50.4753" gradientUnits="userSpaceOnUse">
<stop stop-color="#ABABAB"/>
<stop offset="0.3125" stop-color="white"/>
<stop offset="0.630208" stop-color="#BDBDBD"/>
<stop offset="1" stop-color="#5E5E5E"/>
</linearGradient>
<linearGradient id="paint5_linear" x1="454.752" y1="715.923" x2="524.153" y2="719.494" gradientUnits="userSpaceOnUse">
<stop stop-color="#7D7D7D"/>
<stop offset="0.494792" stop-color="white"/>
<stop offset="1" stop-color="#1C1C1C"/>
</linearGradient>
</defs>
</svg>
